<?xml version="1.0" standalone="no"?>
<!DOCTYPE svg PUBLIC "-//W3C//DTD SVG 20010904//EN"
 "http://www.w3.org/TR/2001/REC-SVG-20010904/DTD/svg10.dtd">
<svg version="1.0" xmlns="http://www.w3.org/2000/svg"
 width="2240.000000pt" height="1260.000000pt" viewBox="0 0 2240.000000 1260.000000"
 preserveAspectRatio="xMidYMid meet">

<g transform="translate(0.000000,1260.000000) scale(0.100000,-0.100000)"
fill="#000000" stroke="none">
<path d="M0 6300 l0 -6300 11200 0 11200 0 0 6300 0 6300 -5227 0 c-4960 0
-5228 -1 -5246 -18 -19 -16 -20 -16 -14 1 6 16 -282 17 -5953 17 l-5960 0 0
-6300z m11195 6251 c-3 -6 -11 -11 -17 -11 -6 0 -6 6 2 15 14 17 26 13 15 -4z
m-1715 -1 c0 -5 -5 -10 -11 -10 -5 0 -7 5 -4 10 3 6 8 10 11 10 2 0 4 -4 4
-10z m-8930 -10 c0 -13 -48 -36 -56 -27 -4 4 -1 13 6 22 14 17 50 20 50 5z
m9480 -5 c-7 -9 -15 -13 -17 -11 -7 7 7 26 19 26 6 0 6 -6 -2 -15z m-1251 -31
c-14 -18 -24 -11 -15 11 3 9 11 13 16 10 8 -5 7 -11 -1 -21z m-7419 -59 c-11
-10 -19 -11 -30 -4 -13 8 -12 11 4 24 26 19 47 2 26 -20z m16230 31 c0 -3 -4
-8 -10 -11 -5 -3 -10 -1 -10 4 0 6 5 11 10 11 6 0 10 -2 10 -4z m-16880 -26
c0 -5 -7 -10 -16 -10 -8 0 -12 5 -9 10 3 6 10 10 16 10 5 0 9 -4 9 -10z m6790
1 c0 -12 -26 -32 -33 -25 -9 10 4 34 19 34 8 0 14 -4 14 -9z m-5190 -5 c0 -3
-4 -8 -10 -11 -5 -3 -10 -1 -10 4 0 6 5 11 10 11 6 0 10 -2 10 -4z m260 -21
c0 -19 -24 -29 -47 -20 -17 6 -17 7 1 21 26 18 46 18 46 -1z m-650 1 c0 -2 -7
-6 -15 -10 -8 -3 -15 -1 -15 4 0 6 7 10 15 10 8 0 15 -2 15 -4z m1520 -10 c0
-17 -27 -29 -35 -16 -4 6 -3 15 0 20 9 15 35 12 35 -4z m5040 10 c0 -3 -4 -8
-10 -11 -5 -3 -10 -1 -10 4 0 6 5 11 10 11 6 0 10 -2 10 -4z m12925 -6 c-3 -5
-12 -10 -18 -10 -7 0 -6 4 3 10 19 12 23 12 15 0z m-13995 -24 c0 -2 -7 -9
-15 -16 -12 -10 -15 -10 -15 4 0 9 7 16 15 16 8 0 15 -2 15 -4z m4405 -15 c-3
-6 -11 -11 -17 -11 -6 0 -6 6 2 15 14 17 26 13 15 -4z m-10125 -5 c0 -3 -4 -8
-10 -11 -5 -3 -10 -1 -10 4 0 6 5 11 10 11 6 0 10 -2 10 -4z m16215 -25 c-3
-6 -11 -11 -17 -11 -6 0 -6 6 2 15 14 17 26 13 15 -4z m-9285 -26 c-7 -9 -15
-13 -17 -11 -7 7 7 26 19 26 6 0 6 -6 -2 -15z m-6845 -14 c3 -6 -3 -15 -14
-21 -24 -12 -42 7 -20 21 18 11 26 11 34 0z m16900 -1 c-3 -5 -11 -10 -16 -10
-6 0 -7 5 -4 10 3 6 11 10 16 10 6 0 7 -4 4 -10z m-13953 -42 c-7 -7 -12 -8
-12 -2 0 14 12 26 19 19 2 -3 -1 -11 -7 -17z m5208 18 c0 -3 -4 -8 -10 -11 -5
-3 -10 -1 -10 4 0 6 5 11 10 11 6 0 10 -2 10 -4z m9370 -21 c-7 -8 -17 -15
-23 -15 -5 0 -2 9 8 20 21 23 35 19 15 -5z m-18230 -10 c0 -26 -14 -31 -39
-16 -12 8 -12 12 -2 25 20 24 41 19 41 -9z m770 11 c0 -15 -24 -28 -34 -19 -7
7 13 33 25 33 5 0 9 -6 9 -14z m-960 0 c0 -3 -4 -8 -10 -11 -5 -3 -10 -1 -10
4 0 6 5 11 10 11 6 0 10 -2 10 -4z m10137 -23 c-9 -9 -19 -14 -22 -11 -3 3 2
13 11 22 9 9 19 14 22 11 3 -3 -2 -13 -11 -22z m-7637 -2 c0 -5 -7 -11 -15
-15 -15 -5 -20 5 -8 17 9 10 23 9 23 -2z m10450 -6 c-7 -8 -17 -15 -22 -15 -6
0 -5 7 2 15 7 8 17 15 22 15 6 0 5 -7 -2 -15z m-8280 -9 c0 -18 -17 -29 -30
-21 -8 5 -7 11 1 21 15 18 29 18 29 0z m-4400 -5 c0 -12 -20 -25 -27 -18 -7 7
6 27 18 27 5 0 9 -4 9 -9z m15703 2 c9 -9 -22 -43 -40 -43 -17 0 -17 10 4 32
17 19 26 22 36 11z m-12917 -31 c-8 -9 -19 -13 -22 -9 -10 9 16 38 28 31 6 -4
4 -13 -6 -22z m-3156 -12 c0 -12 -28 -25 -36 -17 -9 9 6 27 22 27 8 0 14 -5
14 -10z m2850 -5 c0 -8 -7 -15 -15 -15 -26 0 -18 20 13 29 1 1 2 -6 2 -14z
m8815 5 c-3 -5 -11 -10 -16 -10 -6 0 -7 5 -4 10 3 6 11 10 16 10 6 0 7 -4 4
-10z m-11790 -10 c-3 -5 -11 -10 -16 -10 -6 0 -7 5 -4 10 3 6 11 10 16 10 6 0
7 -4 4 -10z m13655 6 c0 -3 -4 -8 -10 -11 -5 -3 -10 -1 -10 4 0 6 5 11 10 11
6 0 10 -2 10 -4z m-7985 -35 c-3 -6 -11 -11 -17 -11 -6 0 -6 6 2 15 14 17 26
13 15 -4z m-6000 -1 c-3 -5 -13 -10 -21 -10 -8 0 -12 5 -9 10 3 6 13 10 21 10
8 0 12 -4 9 -10z m17350 -10 c-10 -11 -20 -18 -23 -15 -7 6 18 35 31 35 5 0 2
-9 -8 -20z m-14683 -12 c-7 -7 -12 -8 -12 -2 0 14 12 26 19 19 2 -3 -1 -11 -7
-17z m15523 3 c-3 -6 -11 -11 -17 -11 -6 0 -6 6 2 15 14 17 26 13 15 -4z
m-428 -18 c-9 -9 -20 -13 -24 -9 -4 4 1 14 11 22 25 18 35 8 13 -13z m-8817 7
c0 -5 -5 -10 -11 -10 -5 0 -7 5 -4 10 3 6 8 10 11 10 2 0 4 -4 4 -10z m-205
-20 c-3 -5 -11 -10 -16 -10 -6 0 -7 5 -4 10 3 6 11 10 16 10 6 0 7 -4 4 -10z
m-1410 -20 c-3 -5 -11 -10 -16 -10 -6 0 -7 5 -4 10 3 6 11 10 16 10 6 0 7 -4
4 -10z m11490 -10 c-10 -11 -20 -18 -23 -15 -7 6 18 35 31 35 5 0 2 -9 -8 -20z
m-12340 -19 c-3 -6 -11 -11 -17 -11 -6 0 -6 6 2 15 14 17 26 13 15 -4z m6875
10 c0 -12 -20 -25 -27 -18 -7 7 6 27 18 27 5 0 9 -4 9 -9z m-7258 -33 c-7 -7
-12 -8 -12 -2 0 14 12 26 19 19 2 -3 -1 -11 -7 -17z m-1052 -13 c-7 -9 -15
-13 -17 -11 -7 7 7 26 19 26 6 0 6 -6 -2 -15z m14000 0 c-7 -8 -17 -15 -22
-15 -6 0 -5 7 2 15 7 8 17 15 22 15 6 0 5 -7 -2 -15z m-15083 -1 c-3 -3 -12
-4 -19 -1 -8 3 -5 6 6 6 11 1 17 -2 13 -5z m16353 2 c0 -3 -4 -8 -10 -11 -5
-3 -10 -1 -10 4 0 6 5 11 10 11 6 0 10 -2 10 -4z m-20210 -10 c0 -3 -4 -8 -10
-11 -5 -3 -10 -1 -10 4 0 6 5 11 10 11 6 0 10 -2 10 -4z m10805 -15 c-3 -6
-11 -11 -17 -11 -6 0 -6 6 2 15 14 17 26 13 15 -4z m-950 -1 c-3 -5 -11 -10
-16 -10 -6 0 -7 5 -4 10 3 6 11 10 16 10 6 0 7 -4 4 -10z m380 -20 c-3 -5 -10
-10 -16 -10 -5 0 -9 5 -9 10 0 6 7 10 16 10 8 0 12 -4 9 -10z m2060 -10 c-3
-5 -11 -10 -16 -10 -6 0 -7 5 -4 10 3 6 11 10 16 10 6 0 7 -4 4 -10z m-11280
-20 c-3 -5 -11 -10 -16 -10 -6 0 -7 5 -4 10 3 6 11 10 16 10 6 0 7 -4 4 -10z
m6606 -13 c-10 -9 -11 -8 -5 6 3 10 9 15 12 12 3 -3 0 -11 -7 -18z m7449 -56
c0 -5 -7 -14 -15 -21 -12 -10 -15 -10 -15 2 0 8 3 18 7 21 9 10 23 9 23 -2z
m-9185 -21 c-3 -5 -11 -10 -16 -10 -6 0 -7 5 -4 10 3 6 11 10 16 10 6 0 7 -4
4 -10z m2175 -9 c0 -12 -29 -35 -36 -28 -11 10 5 37 21 37 8 0 15 -4 15 -9z
m4550 -6 c-7 -9 -15 -13 -19 -10 -3 3 1 10 9 15 21 14 24 12 10 -5z m-7170 -5
c0 -5 -4 -10 -10 -10 -5 0 -10 5 -10 10 0 6 5 10 10 10 6 0 10 -4 10 -10z
m-1500 -14 c0 -3 -4 -8 -10 -11 -5 -3 -10 -1 -10 4 0 6 5 11 10 11 6 0 10 -2
10 -4z m40 -6 c0 -5 -5 -10 -11 -10 -5 0 -7 5 -4 10 3 6 8 10 11 10 2 0 4 -4
4 -10z m-2330 -10 c0 -5 -7 -10 -15 -10 -8 0 -15 5 -15 10 0 6 7 10 15 10 8 0
15 -4 15 -10z m7280 -19 c0 -12 -29 -35 -36 -28 -11 10 5 37 21 37 8 0 15 -4
15 -9z m11005 -41 c-14 -16 -55 -34 -55 -24 0 2 12 14 27 28 30 28 54 24 28
-4z m-16503 -2 c-7 -7 -12 -8 -12 -2 0 14 12 26 19 19 2 -3 -1 -11 -7 -17z
m778 -13 c-9 -8 -20 -11 -28 -6 -11 6 -10 11 4 25 12 12 20 14 27 7 8 -8 7
-15 -3 -26z m400 27 c0 -10 -22 -32 -32 -32 -13 0 -9 28 5 33 19 8 27 8 27 -1z
m5288 -14 c-2 -6 -10 -14 -16 -16 -7 -2 -10 2 -6 12 7 18 28 22 22 4z m8112
-1 c0 -14 -39 -41 -48 -33 -6 7 27 46 40 46 4 0 8 -6 8 -13z m-14120 -22 c-7
-8 -16 -12 -21 -9 -13 8 -1 24 18 24 13 0 13 -3 3 -15z m3080 5 c0 -5 -4 -10
-10 -10 -5 0 -10 5 -10 10 0 6 5 10 10 10 6 0 10 -4 10 -10z m-2290 -44 c0 -3
-4 -8 -10 -11 -5 -3 -10 -1 -10 4 0 6 5 11 10 11 6 0 10 -2 10 -4z m2460 -5
c0 -12 -20 -25 -27 -18 -7 7 6 27 18 27 5 0 9 -4 9 -9z m1280 -5 c0 -15 -18
-31 -26 -23 -7 7 7 37 17 37 5 0 9 -6 9 -14z m-2468 -18 c-7 -7 -12 -8 -12 -2
0 14 12 26 19 19 2 -3 -1 -11 -7 -17z m4398 -3 c-7 -9 -15 -13 -18 -10 -3 2 1
11 8 20 7 9 15 13 18 10 3 -2 -1 -11 -8 -20z m10521 5 c-30 -26 -49 -26 -26 0
10 11 25 20 34 20 12 -1 10 -5 -8 -20z m-11839 -12 c-7 -7 -12 -8 -12 -2 0 14
12 26 19 19 2 -3 -1 -11 -7 -17z m-9226 -13 c-10 -8 -23 -12 -29 -8 -11 7 12
23 33 23 12 -1 11 -4 -4 -15z m7959 5 c-3 -5 -13 -10 -21 -10 -8 0 -12 5 -9
10 3 6 13 10 21 10 8 0 12 -4 9 -10z m8635 1 c0 -13 -29 -35 -37 -28 -7 8 15
37 28 37 5 0 9 -4 9 -9z m-11898 -23 c-7 -7 -12 -8 -12 -2 0 14 12 26 19 19 2
-3 -1 -11 -7 -17z m7118 -13 c-7 -9 -15 -13 -17 -11 -7 7 7 26 19 26 6 0 6 -6
-2 -15z m-10755 -24 c3 -6 -3 -15 -14 -21 -21 -11 -37 2 -26 20 8 13 32 13 40
1z m6185 -5 c0 -3 -4 -8 -10 -11 -5 -3 -10 -1 -10 4 0 6 5 11 10 11 6 0 10 -2
10 -4z m6300 -6 c0 -5 -5 -10 -11 -10 -5 0 -7 5 -4 10 3 6 8 10 11 10 2 0 4
-4 4 -10z m-8195 -11 c4 -5 -1 -19 -11 -30 -16 -18 -19 -18 -33 -4 -15 15 -14
18 3 31 24 17 33 18 41 3z m2257 -21 c-7 -7 -12 -8 -12 -2 0 14 12 26 19 19 2
-3 -1 -11 -7 -17z m3768 18 c0 -3 -4 -8 -10 -11 -5 -3 -10 -1 -10 4 0 6 5 11
10 11 6 0 10 -2 10 -4z m-9460 -30 c0 -3 -4 -8 -10 -11 -5 -3 -10 -1 -10 4 0
6 5 11 10 11 6 0 10 -2 10 -4z m1610 -10 c0 -3 -4 -8 -10 -11 -5 -3 -10 -1
-10 4 0 6 5 11 10 11 6 0 10 -2 10 -4z m7262 -28 c-7 -7 -12 -8 -12 -2 0 14
12 26 19 19 2 -3 -1 -11 -7 -17z m10343 12 c-3 -5 -11 -10 -16 -10 -6 0 -7 5
-4 10 3 6 11 10 16 10 6 0 7 -4 4 -10z m-9945 -25 c-7 -9 -15 -13 -17 -11 -7
7 7 26 19 26 6 0 6 -6 -2 -15z m-5080 -25 c-12 -23 -30 -27 -30 -7 0 17 10 27
27 27 11 0 11 -5 3 -20z m4190 -15 c-7 -9 -15 -13 -18 -10 -3 2 1 11 8 20 7 9
15 13 18 10 3 -2 -1 -11 -8 -20z m3410 0 c-7 -9 -15 -13 -17 -11 -7 7 7 26 19
26 6 0 6 -6 -2 -15z m-5730 -4 c0 -6 -4 -13 -10 -16 -5 -3 -10 1 -10 9 0 9 5
16 10 16 6 0 10 -4 10 -9z m3980 -11 c0 -5 -5 -10 -11 -10 -5 0 -7 5 -4 10 3
6 8 10 11 10 2 0 4 -4 4 -10z m470 6 c0 -3 -4 -8 -10 -11 -5 -3 -10 -1 -10 4
0 6 5 11 10 11 6 0 10 -2 10 -4z m3190 -6 c0 -5 -5 -10 -11 -10 -5 0 -7 5 -4
10 3 6 8 10 11 10 2 0 4 -4 4 -10z m-10734 -15 c-21 -16 -32 -13 -21 4 3 6 14
11 23 11 15 -1 15 -2 -2 -15z m10620 -6 c9 -16 -33 -56 -46 -43 -6 6 -5 17 6
32 17 24 29 28 40 11z m-11096 -9 c0 -5 -4 -10 -10 -10 -5 0 -10 5 -10 10 0 6
5 10 10 10 6 0 10 -4 10 -10z m5570 0 c0 -5 -5 -10 -11 -10 -5 0 -7 5 -4 10 3
6 8 10 11 10 2 0 4 -4 4 -10z m-7055 -10 c-3 -5 -10 -10 -16 -10 -5 0 -9 5 -9
10 0 6 7 10 16 10 8 0 12 -4 9 -10z m13015 0 c0 -5 -7 -10 -16 -10 -8 0 -12 5
-9 10 3 6 10 10 16 10 5 0 9 -4 9 -10z m3520 -15 c-7 -9 -15 -13 -17 -11 -7 7
7 26 19 26 6 0 6 -6 -2 -15z m-10270 -20 c-7 -9 -15 -13 -18 -10 -3 2 1 11 8
20 7 9 15 13 18 10 3 -2 -1 -11 -8 -20z m6765 -14 c-3 -6 -11 -11 -17 -11 -6
0 -6 6 2 15 14 17 26 13 15 -4z m-14625 5 c0 -2 -7 -7 -16 -10 -8 -3 -12 -2
-9 4 6 10 25 14 25 6z m7390 -6 c0 -5 -5 -10 -11 -10 -5 0 -7 5 -4 10 3 6 8
10 11 10 2 0 4 -4 4 -10z m-7145 -10 c-3 -5 -15 -10 -26 -10 -11 0 -17 5 -14
10 3 6 15 10 26 10 11 0 17 -4 14 -10z m7855 -5 c-7 -8 -17 -15 -22 -15 -6 0
-5 7 2 15 7 8 17 15 22 15 6 0 5 -7 -2 -15z m-6866 -4 c8 -12 -21 -34 -34 -26
-8 5 -8 11 1 21 13 16 25 18 33 5z m151 -21 c-20 -22 -31 -20 -22 5 4 8 14 15
23 15 16 0 16 -2 -1 -20z m1605 6 c0 -3 -4 -8 -10 -11 -5 -3 -10 -1 -10 4 0 6
5 11 10 11 6 0 10 -2 10 -4z m8790 -31 c-7 -9 -15 -13 -19 -10 -3 3 1 10 9 15
21 14 24 12 10 -5z m-9815 -5 c-3 -5 -11 -10 -16 -10 -6 0 -7 5 -4 10 3 6 11
10 16 10 6 0 7 -4 4 -10z m9908 -16 c10 -10 -12 -44 -28 -44 -18 0 -20 21 -3
38 13 13 22 15 31 6z m4022 -24 c-20 -22 -31 -20 -22 5 4 8 14 15 23 15 16 0
16 -2 -1 -20z m-6843 -22 c-7 -7 -12 -8 -12 -2 0 14 12 26 19 19 2 -3 -1 -11
-7 -17z m4244 -6 c-8 -9 -19 -13 -22 -9 -10 9 16 38 28 31 6 -4 4 -13 -6 -22z
m-11436 8 c0 -12 -28 -25 -36 -17 -9 9 6 27 22 27 8 0 14 -5 14 -10z m120 0
c0 -5 -5 -10 -11 -10 -5 0 -7 5 -4 10 3 6 8 10 11 10 2 0 4 -4 4 -10z m5142
-12 c-7 -7 -12 -8 -12 -2 0 14 12 26 19 19 2 -3 -1 -11 -7 -17z m3748 18 c0
-3 -4 -8 -10 -11 -5 -3 -10 -1 -10 4 0 6 5 11 10 11 6 0 10 -2 10 -4z m-2670
-14 c0 -11 -37 -32 -44 -25 -8 9 14 33 30 33 8 0 14 -3 14 -8z m-4250 -12 c0
-5 -4 -10 -10 -10 -5 0 -10 5 -10 10 0 6 5 10 10 10 6 0 10 -4 10 -10z m320 1
c0 -5 -7 -11 -15 -15 -15 -5 -20 5 -8 17 9 10 23 9 23 -2z m7015 -1 c-3 -5
-11 -10 -16 -10 -6 0 -7 5 -4 10 3 6 11 10 16 10 6 0 7 -4 4 -10z m-9620 -10
c-3 -5 -11 -10 -16 -10 -6 0 -7 5 -4 10 3 6 11 10 16 10 6 0 7 -4 4 -10z
m1085 0 c0 -5 -4 -10 -10 -10 -5 0 -10 5 -10 10 0 6 5 10 10 10 6 0 10 -4 10
-10z m-520 -45 c0 -8 -7 -15 -15 -15 -26 0 -18 20 13 29 1 1 2 -6 2 -14z
m4512 -17 c-7 -7 -12 -8 -12 -2 0 14 12 26 19 19 2 -3 -1 -11 -7 -17z m213 12
c-3 -5 -11 -10 -16 -10 -6 0 -7 5 -4 10 3 6 11 10 16 10 6 0 7 -4 4 -10z
m-8245 -10 c0 -13 -48 -36 -56 -27 -4 4 -1 13 6 22 14 17 50 20 50 5z m2925
-10 c-3 -5 -11 -10 -16 -10 -6 0 -7 5 -4 10 3 6 11 10 16 10 6 0 7 -4 4 -10z
m11380 -9 c-3 -6 -11 -11 -17 -11 -6 0 -6 6 2 15 14 17 26 13 15 -4z m-13653
-33 c-6 -6 -15 -8 -19 -4 -4 4 -1 11 7 16 19 12 27 3 12 -12z m9863 3 c-3 -6
-11 -11 -17 -11 -6 0 -6 6 2 15 14 17 26 13 15 -4z m2805 0 c0 -13 -29 -35
-37 -28 -7 8 15 37 28 37 5 0 9 -4 9 -9z m2881 -24 c-16 -16 -26 0 -10 19 9
11 15 12 17 4 2 -6 -1 -17 -7 -23z m2281 11 c-7 -7 -12 -8 -12 -2 0 14 12 26
19 19 2 -3 -1 -11 -7 -17z m-10743 -17 c11 -7 11 -10 0 -17 -7 -4 -14 -3 -17
4 -2 7 -9 9 -14 6 -7 -4 -8 -2 -4 4 8 14 16 15 35 3z m-1519 -10 c0 -12 -20
-25 -27 -18 -7 7 6 27 18 27 5 0 9 -4 9 -9z m2352 -23 c-7 -7 -12 -8 -12 -2 0
14 12 26 19 19 2 -3 -1 -11 -7 -17z m3318 13 c0 -12 -20 -25 -27 -18 -7 7 6
27 18 27 5 0 9 -4 9 -9z m2222 -73 c-7 -7 -12 -8 -12 -2 0 14 12 26 19 19 2
-3 -1 -11 -7 -17z m1203 12 c-3 -5 -10 -10 -16 -10 -5 0 -9 5 -9 10 0 6 7 10
16 10 8 0 12 -4 9 -10z m-10470 -19 c-3 -6 -11 -11 -17 -11 -6 0 -6 6 2 15 14
17 26 13 15 -4z m-665 -1 c0 -5 -4 -10 -10 -10 -5 0 -10 5 -10 10 0 6 5 10 10
10 6 0 10 -4 10 -10z m1360 6 c0 -3 -4 -8 -10 -11 -5 -3 -10 -1 -10 4 0 6 5
11 10 11 6 0 10 -2 10 -4z m12235 -6 c-3 -5 -11 -10 -16 -10 -6 0 -7 5 -4 10
3 6 11 10 16 10 6 0 7 -4 4 -10z m360 0 c-3 -5 -13 -10 -21 -10 -8 0 -12 5 -9
10 3 6 13 10 21 10 8 0 12 -4 9 -10z m-18010 -10 c-3 -5 -11 -10 -16 -10 -6 0
-7 5 -4 10 3 6 11 10 16 10 6 0 7 -4 4 -10z m6875 -9 c0 -13 -26 -32 -33 -24
-8 7 11 33 24 33 5 0 9 -4 9 -9z m7975 -1 c-3 -5 -10 -10 -16 -10 -5 0 -9 5
-9 10 0 6 7 10 16 10 8 0 12 -4 9 -10z m-14595 -4 c0 -2 -7 -6 -15 -10 -8 -3
-15 -1 -15 4 0 6 7 10 15 10 8 0 15 -2 15 -4z m5350 -6 c0 -5 -5 -10 -11 -10
-5 0 -7 5 -4 10 3 6 8 10 11 10 2 0 4 -4 4 -10z m4760 0 c0 -5 -5 -10 -11 -10
-5 0 -7 5 -4 10 3 6 8 10 11 10 2 0 4 -4 4 -10z m-790 -15 c-7 -9 -15 -13 -17
-11 -7 7 7 26 19 26 6 0 6 -6 -2 -15z m6067 -12 c-9 -9 -20 -13 -24 -9 -4 4 1
14 11 22 25 18 35 8 13 -13z m-11582 -2 c-3 -6 -11 -11 -17 -11 -6 0 -6 6 2
15 14 17 26 13 15 -4z m9937 -33 c-7 -7 -12 -8 -12 -2 0 14 12 26 19 19 2 -3
-1 -11 -7 -17z m-8013 -4 c3 -3 -3 -12 -13 -22 -13 -12 -20 -13 -23 -5 -2 7
-11 9 -19 6 -8 -3 -14 1 -14 10 0 8 6 18 13 20 11 5 47 -1 56 -9z m11271 -4
c0 -9 -31 -30 -45 -30 -3 0 -1 9 5 20 11 20 40 28 40 10z m-12960 -24 c0 -2
-7 -6 -15 -10 -8 -3 -15 -1 -15 4 0 6 7 10 15 10 8 0 15 -2 15 -4z m362 -28
c-6 -6 -15 -8 -19 -4 -4 4 -1 11 7 16 19 12 27 3 12 -12z m2758 7 c-7 -9 -15
-13 -17 -11 -7 7 7 26 19 26 6 0 6 -6 -2 -15z m857 -2 c-9 -9 -19 -14 -23 -11
-10 10 6 28 24 28 15 0 15 -1 -1 -17z m158 7 c-3 -5 -11 -10 -16 -10 -6 0 -7
5 -4 10 3 6 11 10 16 10 6 0 7 -4 4 -10z m-1440 -20 c-3 -5 -11 -10 -16 -10
-6 0 -7 5 -4 10 3 6 11 10 16 10 6 0 7 -4 4 -10z m1916 -33 c-16 -16 -26 0
-10 19 9 11 15 12 17 4 2 -6 -1 -17 -7 -23z m-3361 13 c0 -5 -5 -10 -11 -10
-5 0 -7 5 -4 10 3 6 8 10 11 10 2 0 4 -4 4 -10z m9894 1 c7 -11 -30 -44 -44
-39 -6 2 -5 11 5 26 17 23 30 28 39 13z m-12462 -25 c13 -10 15 -15 6 -24 -17
-17 -31 -15 -24 3 3 9 0 15 -9 15 -8 0 -15 5 -15 10 0 14 22 12 42 -4z m1003
4 c-3 -5 -11 -10 -16 -10 -6 0 -7 5 -4 10 3 6 11 10 16 10 6 0 7 -4 4 -10z
m4947 -12 c-7 -7 -12 -8 -12 -2 0 14 12 26 19 19 2 -3 -1 -11 -7 -17z m-2062
2 c0 -5 -5 -10 -11 -10 -5 0 -7 5 -4 10 3 6 8 10 11 10 2 0 4 -4 4 -10z m1555
-9 c-3 -6 -11 -11 -17 -11 -6 0 -6 6 2 15 14 17 26 13 15 -4z m1457 -13 c-7
-7 -12 -8 -12 -2 0 14 12 26 19 19 2 -3 -1 -11 -7 -17z m-5922 -48 c0 -5 -5
-10 -11 -10 -5 0 -7 5 -4 10 3 6 8 10 11 10 2 0 4 -4 4 -10z m-355 -10 c-3 -5
-11 -10 -16 -10 -6 0 -7 5 -4 10 3 6 11 10 16 10 6 0 7 -4 4 -10z m-1760 -10
c-3 -5 -11 -10 -16 -10 -6 0 -7 5 -4 10 3 6 11 10 16 10 6 0 7 -4 4 -10z
m5280 0 c-3 -5 -11 -10 -16 -10 -6 0 -7 5 -4 10 3 6 11 10 16 10 6 0 7 -4 4
-10z m7725 -15 c-7 -9 -15 -13 -17 -11 -7 7 7 26 19 26 6 0 6 -6 -2 -15z
m-6600 -5 c0 -5 -5 -10 -11 -10 -5 0 -7 5 -4 10 3 6 8 10 11 10 2 0 4 -4 4
-10z m-970 -9 c0 -12 -29 -35 -36 -28 -11 10 5 37 21 37 8 0 15 -4 15 -9z m74
-6 c-4 -8 -12 -15 -20 -15 -8 0 -11 6 -8 15 4 8 12 15 20 15 8 0 11 -6 8 -15z
m921 -14 c-3 -6 -11 -11 -17 -11 -6 0 -6 6 2 15 14 17 26 13 15 -4z m-6995
-11 c0 -13 -38 -32 -51 -25 -14 10 9 35 32 35 11 0 19 -4 19 -10z m5600 6 c0
-3 -4 -8 -10 -11 -5 -3 -10 -1 -10 4 0 6 5 11 10 11 6 0 10 -2 10 -4z m2762
-18 c-7 -7 -12 -8 -12 -2 0 14 12 26 19 19 2 -3 -1 -11 -7 -17z m-5452 2 c0
-5 -5 -10 -11 -10 -5 0 -7 5 -4 10 3 6 8 10 11 10 2 0 4 -4 4 -10z m-3625 -20
c-3 -5 -11 -10 -16 -10 -6 0 -7 5 -4 10 3 6 11 10 16 10 6 0 7 -4 4 -10z
m3800 -10 c-3 -5 -13 -10 -21 -10 -8 0 -12 5 -9 10 3 6 13 10 21 10 8 0 12 -4
9 -10z m11117 -42 c-7 -7 -12 -8 -12 -2 0 14 12 26 19 19 2 -3 -1 -11 -7 -17z
m-6522 2 c0 -5 -2 -10 -4 -10 -2 0 -12 -3 -20 -6 -12 -5 -15 -2 -10 10 7 17
34 22 34 6z m5445 -30 c-10 -11 -22 -17 -27 -14 -12 8 11 34 30 34 13 0 12 -3
-3 -20z m-9438 -7 c-9 -9 -19 -14 -23 -11 -10 10 6 28 24 28 15 0 15 -1 -1
-17z m10873 -3 c0 -5 -5 -10 -11 -10 -5 0 -7 5 -4 10 3 6 8 10 11 10 2 0 4 -4
4 -10z m710 -50 c-8 -5 -17 -7 -19 -4 -3 3 1 9 9 14 8 5 17 7 19 4 3 -3 -1 -9
-9 -14z m-16451 -3 c-2 -1 -13 -9 -24 -17 -19 -14 -19 -14 -6 3 7 9 18 17 24
17 6 0 8 -1 6 -3z m13441 -7 c0 -5 -5 -10 -11 -10 -5 0 -7 5 -4 10 3 6 8 10
11 10 2 0 4 -4 4 -10z m-10200 -10 c0 -5 -5 -10 -11 -10 -5 0 -7 5 -4 10 3 6
8 10 11 10 2 0 4 -4 4 -10z m4222 -12 c-6 -6 -15 -8 -19 -4 -4 4 -1 11 7 16
19 12 27 3 12 -12z m11668 -13 c-7 -9 -15 -13 -18 -10 -3 2 1 11 8 20 7 9 15
13 18 10 3 -2 -1 -11 -8 -20z m-17660 -4 c0 -10 -30 -24 -37 -17 -3 3 -2 9 2
15 8 13 35 15 35 2z m3860 -31 c0 -5 -5 -10 -11 -10 -5 0 -7 5 -4 10 3 6 8 10
11 10 2 0 4 -4 4 -10z m6240 -5 c-7 -9 -15 -13 -17 -11 -7 7 7 26 19 26 6 0 6
-6 -2 -15z m-1750 1 c0 -3 -4 -8 -10 -11 -5 -3 -10 -1 -10 4 0 6 5 11 10 11 6
0 10 -2 10 -4z m-6155 -55 c-3 -6 -11 -11 -17 -11 -6 0 -6 6 2 15 14 17 26 13
15 -4z m4847 -3 c-7 -7 -12 -8 -12 -2 0 14 12 26 19 19 2 -3 -1 -11 -7 -17z
m13158 14 c0 -5 -12 -14 -27 -21 -28 -13 -28 -13 -9 8 20 22 36 27 36 13z
m-18161 -28 c-13 -16 -39 -19 -39 -4 0 12 32 30 43 23 4 -3 3 -11 -4 -19z
m10441 11 c-7 -9 -15 -13 -17 -11 -7 7 7 26 19 26 6 0 6 -6 -2 -15z m4890 10
c0 -2 -10 -10 -22 -16 -21 -11 -22 -11 -9 4 13 16 31 23 31 12z m-18430 -14
c0 -5 -7 -11 -15 -15 -15 -5 -20 5 -8 17 9 10 23 9 23 -2z m3732 -13 c-7 -7
-12 -8 -12 -2 0 14 12 26 19 19 2 -3 -1 -11 -7 -17z m4463 -8 c-3 -5 -11 -10
-16 -10 -6 0 -7 5 -4 10 3 6 11 10 16 10 6 0 7 -4 4 -10z m6135 -10 c0 -5 -5
-10 -11 -10 -5 0 -7 5 -4 10 3 6 8 10 11 10 2 0 4 -4 4 -10z m-13060 -20 c-8
-5 -17 -7 -19 -4 -3 3 1 9 9 14 8 5 17 7 19 4 3 -3 -1 -9 -9 -14z m3058 -2
c-3 -7 -13 -15 -24 -17 -16 -3 -17 -1 -5 13 16 19 34 21 29 4z m406 -3 c-4 -8
-11 -12 -16 -9 -6 4 -5 10 3 15 19 12 19 11 13 -6z m9856 11 c0 -3 -4 -8 -10
-11 -5 -3 -10 -1 -10 4 0 6 5 11 10 11 6 0 10 -2 10 -4z m-10155 -25 c-3 -6
-11 -11 -17 -11 -6 0 -6 6 2 15 14 17 26 13 15 -4z m10485 10 c0 -5 -7 -12
-16 -15 -24 -9 -28 -7 -14 9 14 17 30 20 30 6z m-6340 -11 c0 -5 -5 -10 -11
-10 -5 0 -7 5 -4 10 3 6 8 10 11 10 2 0 4 -4 4 -10z m2036 -12 c-3 -13 -5 -25
-5 -28 -1 -3 -5 2 -11 10 -5 9 -5 19 2 27 15 19 18 16 14 -9z m219 3 c-3 -6
-11 -11 -17 -11 -6 0 -6 6 2 15 14 17 26 13 15 -4z m4150 -1 c-3 -5 -10 -10
-16 -10 -5 0 -9 5 -9 10 0 6 7 10 16 10 8 0 12 -4 9 -10z m-5890 -10 c-3 -5
-11 -10 -16 -10 -6 0 -7 5 -4 10 3 6 11 10 16 10 6 0 7 -4 4 -10z m1161 -5
c-11 -8 -25 -15 -30 -15 -6 0 -2 7 8 15 11 8 25 15 30 15 6 0 2 -7 -8 -15z
m2074 6 c0 -5 -7 -14 -15 -21 -12 -10 -15 -10 -15 2 0 8 3 18 7 21 9 10 23 9
23 -2z m-3058 -23 c-6 -6 -15 -8 -19 -4 -4 4 -1 11 7 16 19 12 27 3 12 -12z
m4888 15 c0 -10 -32 -43 -42 -43 -12 0 -10 24 4 38 13 13 38 16 38 5z m270
-23 c0 -5 -5 -10 -11 -10 -5 0 -7 5 -4 10 3 6 8 10 11 10 2 0 4 -4 4 -10z
m3378 -22 c-6 -16 -36 -34 -44 -26 -8 9 17 37 34 38 8 0 12 -5 10 -12z
m-12763 -18 c-3 -5 -13 -10 -21 -10 -8 0 -12 5 -9 10 3 6 13 10 21 10 8 0 12
-4 9 -10z m-684 -27 c-8 -15 -10 -15 -11 -2 0 17 10 32 18 25 2 -3 -1 -13 -7
-23z m1900 -6 c-8 -8 -11 -7 -11 4 0 9 3 19 7 23 4 4 9 2 11 -4 3 -7 -1 -17
-7 -23z m719 18 c-7 -8 -17 -15 -22 -15 -6 0 -5 7 2 15 7 8 17 15 22 15 6 0 5
-7 -2 -15z m10420 -5 c0 -5 -5 -10 -11 -10 -5 0 -7 5 -4 10 3 6 8 10 11 10 2
0 4 -4 4 -10z m-1073 -17 c-9 -9 -19 -14 -23 -11 -10 10 6 28 24 28 15 0 15
-1 -1 -17z m-6935 -25 c-6 -6 -15 -8 -19 -4 -4 4 -1 11 7 16 19 12 27 3 12
-12z m-2782 -13 c-13 -14 -26 -23 -28 -20 -7 7 29 45 41 45 6 0 0 -11 -13 -25z
m1715 15 c-3 -5 -11 -10 -16 -10 -6 0 -7 5 -4 10 3 6 11 10 16 10 6 0 7 -4 4
-10z m-1125 -10 c0 -5 -5 -10 -11 -10 -5 0 -7 5 -4 10 3 6 8 10 11 10 2 0 4
-4 4 -10z m2940 6 c0 -3 -4 -8 -10 -11 -5 -3 -10 -1 -10 4 0 6 5 11 10 11 6 0
10 -2 10 -4z m-4635 -16 c-3 -5 -11 -10 -16 -10 -6 0 -7 5 -4 10 3 6 11 10 16
10 6 0 7 -4 4 -10z m6345 1 c0 -5 -7 -12 -16 -15 -24 -9 -28 -7 -14 9 14 17
30 20 30 6z m-2880 -26 c-7 -9 -15 -13 -19 -10 -3 3 1 10 9 15 21 14 24 12 10
-5z m-6822 -7 c-3 -7 -15 -15 -28 -16 -21 -3 -22 -2 -11 12 16 19 44 21 39 4z
m5212 3 c0 -12 -20 -25 -27 -18 -7 7 6 27 18 27 5 0 9 -4 9 -9z m4780 -16 c-7
-9 -15 -13 -18 -10 -3 2 1 11 8 20 7 9 15 13 18 10 3 -2 -1 -11 -8 -20z
m-12515 -12 c-11 -7 -22 -13 -27 -13 -14 0 -8 19 9 29 25 13 40 1 18 -16z
m2225 18 c0 -11 -31 -24 -39 -16 -3 3 1 10 9 15 19 12 30 12 30 1z m7282 -13
c-7 -7 -12 -8 -12 -2 0 14 12 26 19 19 2 -3 -1 -11 -7 -17z m-4387 -17 c-3 -6
-11 -11 -17 -11 -6 0 -6 6 2 15 14 17 26 13 15 -4z m1055 15 c0 -2 -7 -7 -16
-10 -8 -3 -12 -2 -9 4 6 10 25 14 25 6z m3008 -33 c-6 -7 -14 -13 -19 -13 -13
0 -11 24 3 38 16 16 31 -7 16 -25z m-2291 10 c-9 -9 -19 -14 -23 -11 -10 10 6
28 24 28 15 0 15 -1 -1 -17z m1538 7 c-3 -5 -10 -10 -16 -10 -5 0 -9 5 -9 10
0 6 7 10 16 10 8 0 12 -4 9 -10z m-3877 -12 c-3 -7 -13 -15 -24 -17 -16 -3
-17 -1 -5 13 16 19 34 21 29 4z m9282 3 c0 -5 -7 -12 -16 -15 -24 -9 -28 -7
-14 9 14 17 30 20 30 6z m-5445 -21 c-3 -5 -11 -10 -16 -10 -6 0 -7 5 -4 10 3
6 11 10 16 10 6 0 7 -4 4 -10z m-4535 -19 c0 -12 -20 -25 -27 -18 -7 7 6 27
18 27 5 0 9 -4 9 -9z m2980 -6 c-7 -9 -15 -13 -17 -11 -7 7 7 26 19 26 6 0 6
-6 -2 -15z m-6418 -27 c-9 -9 -15 -9 -24 0 -10 10 -10 15 2 22 20 12 38 -6 22
-22z m6460 0 c-6 -6 -15 -8 -19 -4 -4 4 -1 11 7 16 19 12 27 3 12 -12z m8317
1 c-22 -14 -33 -10 -19 6 7 8 17 12 22 9 6 -4 5 -10 -3 -15z m-13969 -14 c0
-18 -31 -28 -44 -15 -8 8 -6 15 8 25 21 16 36 11 36 -10z m4720 -5 c0 -5 -5
-10 -11 -10 -5 0 -7 5 -4 10 3 6 8 10 11 10 2 0 4 -4 4 -10z m1027 -17 c-9 -9
-20 -13 -24 -9 -4 4 1 14 11 22 25 18 35 8 13 -13z m1823 17 c0 -5 -5 -10 -11
-10 -5 0 -7 5 -4 10 3 6 8 10 11 10 2 0 4 -4 4 -10z m-4890 -10 c0 -5 -5 -10
-11 -10 -5 0 -7 5 -4 10 3 6 8 10 11 10 2 0 4 -4 4 -10z m2870 6 c0 -2 -7 -9
-15 -16 -13 -11 -14 -10 -9 4 5 14 24 23 24 12z m14290 0 c0 -3 -4 -8 -10 -11
-5 -3 -10 -1 -10 4 0 6 5 11 10 11 6 0 10 -2 10 -4z m-6735 -40 c-27 -19 -40
-8 -19 15 12 13 21 16 28 9 7 -7 4 -14 -9 -24z m-7415 15 c0 -12 -20 -25 -27
-18 -7 7 6 27 18 27 5 0 9 -4 9 -9z m-1430 -10 c0 -12 -20 -25 -27 -18 -7 7 6
27 18 27 5 0 9 -4 9 -9z m-1060 -10 c0 -5 -7 -12 -16 -15 -14 -5 -15 -4 -4 9
14 17 20 19 20 6z m1217 -28 c-9 -9 -19 -14 -23 -11 -10 10 6 28 24 28 15 0
15 -1 -1 -17z m1048 7 c-3 -5 -11 -10 -16 -10 -6 0 -7 5 -4 10 3 6 11 10 16
10 6 0 7 -4 4 -10z m4055 -15 c-7 -9 -15 -13 -17 -11 -7 7 7 26 19 26 6 0 6
-6 -2 -15z m-2550 -20 c-7 -9 -15 -13 -17 -11 -7 7 7 26 19 26 6 0 6 -6 -2
-15z m6580 7 c0 -13 -23 -32 -37 -32 -11 0 -11 5 -3 20 10 19 40 28 40 12z
m3355 -2 c-3 -5 -10 -10 -16 -10 -5 0 -9 5 -9 10 0 6 7 10 16 10 8 0 12 -4 9
-10z m-6675 -15 c-7 -8 -16 -15 -21 -15 -5 0 -6 7 -3 15 4 8 13 15 21 15 13 0
13 -3 3 -15z m460 5 c0 -5 -5 -10 -11 -10 -5 0 -7 5 -4 10 3 6 8 10 11 10 2 0
4 -4 4 -10z m1980 0 c0 -5 -2 -10 -4 -10 -2 0 -12 -3 -20 -6 -12 -5 -15 -2
-10 10 7 17 34 22 34 6z m80 2 c0 -11 -22 -32 -32 -32 -5 0 -4 9 2 20 11 20
30 28 30 12z m514 -7 c-6 -16 -24 -21 -24 -7 0 11 11 22 21 22 5 0 6 -7 3 -15z
m-5044 -4 c0 -12 -20 -25 -27 -18 -7 7 6 27 18 27 5 0 9 -4 9 -9z m290 -1 c0
-5 -5 -10 -11 -10 -5 0 -7 5 -4 10 3 6 8 10 11 10 2 0 4 -4 4 -10z m2585 -10
c-3 -5 -11 -10 -16 -10 -6 0 -7 5 -4 10 3 6 11 10 16 10 6 0 7 -4 4 -10z
m1905 -5 c-7 -9 -15 -13 -17 -11 -7 7 7 26 19 26 6 0 6 -6 -2 -15z m1040 -10
c-7 -8 -17 -15 -22 -15 -6 0 -5 7 2 15 7 8 17 15 22 15 6 0 5 -7 -2 -15z
m5280 7 c0 -5 -11 -14 -25 -20 -28 -13 -35 1 -7 17 21 13 32 14 32 3z m-17920
-10 c0 -9 -46 -52 -56 -52 -4 0 -1 7 6 15 7 8 9 15 5 15 -4 0 -2 7 5 15 13 16
40 21 40 7z m6495 -11 c-3 -6 -11 -11 -17 -11 -6 0 -6 6 2 15 14 17 26 13 15
-4z m2645 4 c-7 -9 -15 -13 -17 -11 -7 7 7 26 19 26 6 0 6 -6 -2 -15z m-7200
-14 c0 -5 -6 -14 -14 -20 -11 -9 -16 -9 -21 0 -4 6 -1 15 6 20 18 11 29 11 29
0z m11245 -10 c-3 -6 -11 -11 -17 -11 -6 0 -6 6 2 15 14 17 26 13 15 -4z
m-12685 -1 c0 -12 -28 -25 -36 -17 -9 9 6 27 22 27 8 0 14 -5 14 -10z m1543
-15 c-6 -16 -43 -21 -43 -5 0 11 32 30 42 24 4 -3 5 -11 1 -19z m8242 6 c-3
-6 -11 -11 -17 -11 -6 0 -6 6 2 15 14 17 26 13 15 -4z m2060 0 c-3 -6 -11 -11
-17 -11 -6 0 -6 6 2 15 14 17 26 13 15 -4z m-5485 0 c0 -13 -29 -35 -37 -28
-7 8 15 37 28 37 5 0 9 -4 9 -9z m4750 -31 c0 -5 -5 -10 -11 -10 -5 0 -7 5 -4
10 3 6 8 10 11 10 2 0 4 -4 4 -10z m-1820 -4 c0 -2 -7 -7 -16 -10 -8 -3 -12
-2 -9 4 6 10 25 14 25 6z m5440 -15 c0 -13 -29 -35 -37 -28 -7 8 15 37 28 37
5 0 9 -4 9 -9z m-14780 -16 c0 -8 -2 -15 -4 -15 -2 0 -11 -3 -19 -6 -9 -3 -16
2 -19 13 -4 14 1 19 18 21 16 1 24 -4 24 -13z m2140 -29 c0 -3 -4 -8 -10 -11
-5 -3 -10 -1 -10 4 0 6 5 11 10 11 6 0 10 -2 10 -4z m14710 -6 c-8 -5 -19 -10
-25 -10 -5 0 -3 5 5 10 8 5 20 10 25 10 6 0 3 -5 -5 -10z m-6105 -10 c-3 -5
-11 -10 -16 -10 -6 0 -7 5 -4 10 3 6 11 10 16 10 6 0 7 -4 4 -10z m47 -22 c-7
-7 -12 -8 -12 -2 0 14 12 26 19 19 2 -3 -1 -11 -7 -17z m368 18 c0 -3 -4 -8
-10 -11 -5 -3 -10 -1 -10 4 0 6 5 11 10 11 6 0 10 -2 10 -4z m-10210 -26 c0
-12 -28 -25 -36 -17 -9 9 6 27 22 27 8 0 14 -5 14 -10z m2100 -5 c-7 -9 -15
-13 -17 -11 -7 7 7 26 19 26 6 0 6 -6 -2 -15z m6310 6 c0 -12 -20 -25 -27 -18
-7 7 6 27 18 27 5 0 9 -4 9 -9z m-9314 -29 c-8 -9 -19 -13 -22 -9 -10 9 16 38
28 31 6 -4 4 -13 -6 -22z m8237 13 c-3 -9 -8 -14 -10 -11 -3 3 -2 9 2 15 9 16
15 13 8 -4z m-7295 -7 c-3 -7 -13 -15 -24 -17 -16 -3 -17 -1 -5 13 16 19 34
21 29 4z m7229 -8 c-4 -28 -15 -35 -12 -8 3 27 3 28 10 28 3 0 4 -9 2 -20z
m-10672 -10 c-3 -5 -15 -10 -26 -10 -11 0 -17 5 -14 10 3 6 15 10 26 10 11 0
17 -4 14 -10z m3910 0 c-3 -5 -11 -10 -16 -10 -6 0 -7 5 -4 10 3 6 11 10 16
10 6 0 7 -4 4 -10z m5855 -15 c-7 -8 -17 -15 -22 -15 -6 0 -5 7 2 15 7 8 17
15 22 15 6 0 5 -7 -2 -15z m-1615 -5 c-3 -5 -14 -10 -23 -10 -15 0 -15 2 -2
10 20 13 33 13 25 0z m795 -5 c-7 -9 -15 -13 -19 -10 -3 3 1 10 9 15 21 14 24
12 10 -5z m-5020 -5 c0 -5 -7 -10 -16 -10 -8 0 -12 5 -9 10 3 6 10 10 16 10 5
0 9 -4 9 -10z m1980 1 c0 -5 -6 -14 -14 -20 -16 -13 -32 2 -21 19 8 12 35 13
35 1z m14900 -11 c0 -5 -5 -10 -11 -10 -5 0 -7 5 -4 10 3 6 8 10 11 10 2 0 4
-4 4 -10z m-12300 -9 c0 -12 -29 -35 -36 -28 -11 10 5 37 21 37 8 0 15 -4 15
-9z m-1968 -23 c-7 -7 -12 -8 -12 -2 0 14 12 26 19 19 2 -3 -1 -11 -7 -17z
m5623 3 c-3 -6 -11 -11 -17 -11 -6 0 -6 6 2 15 14 17 26 13 15 -4z m-7685 -6
c-13 -16 -40 -20 -40 -7 0 14 12 22 33 22 16 0 17 -3 7 -15z m2850 -10 c-7 -9
-15 -13 -17 -11 -7 7 7 26 19 26 6 0 6 -6 -2 -15z m905 5 c-3 -5 -11 -10 -16
-10 -6 0 -7 5 -4 10 3 6 11 10 16 10 6 0 7 -4 4 -10z m8925 1 c0 -5 -7 -11
-15 -15 -15 -5 -20 5 -8 17 9 10 23 9 23 -2z m-3890 -16 c-7 -8 -17 -15 -22
-15 -6 0 -5 7 2 15 7 8 17 15 22 15 6 0 5 -7 -2 -15z m-8425 -15 c-3 -5 -11
-10 -16 -10 -6 0 -7 5 -4 10 3 6 11 10 16 10 6 0 7 -4 4 -10z m-2845 -10 c0
-5 -7 -10 -16 -10 -8 0 -12 5 -9 10 3 6 10 10 16 10 5 0 9 -4 9 -10z m3458 -2
c-2 -6 -10 -14 -16 -16 -7 -2 -10 2 -6 12 7 18 28 22 22 4z m-5985 -5 c11 -10
-13 -33 -34 -33 -22 0 -24 11 -7 28 13 13 31 16 41 5z m16992 -13 c-3 -5 -11
-10 -16 -10 -6 0 -7 5 -4 10 3 6 11 10 16 10 6 0 7 -4 4 -10z m-14215 -10 c0
-5 -5 -10 -11 -10 -5 0 -7 5 -4 10 3 6 8 10 11 10 2 0 4 -4 4 -10z m5635 -10
c-3 -5 -11 -10 -16 -10 -6 0 -7 5 -4 10 3 6 11 10 16 10 6 0 7 -4 4 -10z
m10211 -15 c-21 -16 -32 -13 -21 4 3 6 14 11 23 11 15 -1 15 -2 -2 -15z
m-9171 -5 c-3 -5 -11 -10 -16 -10 -6 0 -7 5 -4 10 3 6 11 10 16 10 6 0 7 -4 4
-10z m-2320 -10 c-3 -5 -11 -10 -16 -10 -6 0 -7 5 -4 10 3 6 11 10 16 10 6 0
7 -4 4 -10z m6545 -15 c-7 -9 -15 -13 -17 -11 -7 7 7 26 19 26 6 0 6 -6 -2
-15z m-13135 -5 c-3 -5 -10 -10 -16 -10 -5 0 -9 5 -9 10 0 6 7 10 16 10 8 0
12 -4 9 -10z m9605 1 c0 -5 -7 -11 -14 -14 -10 -4 -13 -1 -9 9 6 15 23 19 23
5z m3100 0 c0 -13 -29 -35 -37 -28 -7 8 15 37 28 37 5 0 9 -4 9 -9z m-6705
-30 c-3 -6 -11 -11 -17 -11 -6 0 -6 6 2 15 14 17 26 13 15 -4z m945 4 c-11
-13 0 -15 94 -15 l106 0 0 -25 0 -25 -115 0 -115 0 0 -65 0 -65 105 0 105 0 0
-25 0 -25 -105 0 -105 0 0 -70 0 -70 120 0 120 0 0 -25 0 -25 -149 0 -148 0
-2 210 -1 210 24 0 c13 0 29 7 36 15 7 8 19 15 27 15 13 0 13 -3 3 -15z m816
0 c-3 -9 0 -15 9 -15 12 0 15 -15 15 -70 0 -48 4 -70 12 -70 9 0 9 -3 0 -12
-8 -8 -12 -48 -12 -115 l0 -103 90 0 c89 0 90 0 90 -25 l0 -25 -120 0 -120 0
0 213 c0 152 3 216 12 225 17 17 31 15 24 -3z m-1406 -110 l0 -95 125 0 125 0
0 95 c0 95 0 95 25 95 l25 0 0 -210 0 -210 -25 0 c-25 0 -25 1 -25 90 l0 90
-125 0 -125 0 0 -90 0 -90 -31 0 -31 0 4 210 3 210 27 0 28 0 0 -95z m1031
-55 c0 -82 1 -165 2 -182 l1 -33 89 -5 c84 -5 90 -7 93 -27 4 -23 3 -23 -116
-23 l-120 0 0 210 0 210 25 0 25 0 1 -150z m1014 131 c43 -19 100 -78 116
-118 5 -13 9 -46 9 -73 0 -61 -10 -88 -52 -135 -43 -50 -99 -75 -168 -75 -70
0 -127 26 -168 76 -118 142 -19 344 168 344 32 0 72 -8 95 -19z m887 -126 c40
-80 75 -145 78 -145 3 0 38 65 78 145 69 138 73 145 102 145 l30 0 0 -210 c0
-202 -1 -210 -20 -210 -19 0 -20 8 -22 168 l-3 167 -75 -145 c-41 -80 -82
-146 -90 -148 -10 -2 -38 44 -90 145 l-75 148 -3 -167 -2 -168 -25 0 -25 0 0
210 0 210 35 0 35 0 72 -145z m558 40 c35 -58 67 -105 70 -105 3 1 33 48 68
105 53 87 67 105 88 105 13 0 24 -1 24 -3 0 -2 -36 -66 -80 -143 -78 -136 -80
-140 -80 -206 0 -66 -1 -68 -25 -68 -24 0 -25 2 -25 75 l0 74 -79 136 c-79
134 -80 135 -53 135 24 0 36 -13 92 -105z m825 -57 l120 -162 3 162 2 162 25
0 25 0 0 -210 0 -210 -25 0 c-21 0 -46 28 -148 164 l-122 164 -3 -164 -2 -164
-25 0 -25 0 0 210 0 210 28 0 c23 -1 43 -23 147 -162z m589 140 c-3 -10 1 -30
9 -45 8 -16 25 -53 38 -83 13 -30 29 -60 36 -66 7 -6 10 -13 8 -16 -3 -3 9
-36 26 -74 53 -119 53 -114 20 -114 -25 0 -31 7 -49 50 -16 39 -26 50 -44 50
-107 3 -199 1 -207 -4 -5 -4 -17 -26 -27 -51 -14 -39 -21 -45 -46 -45 -16 0
-27 3 -25 8 3 4 44 95 92 202 48 107 89 199 92 203 2 4 22 7 44 5 33 -2 38 -5
33 -20z m448 -123 c40 -80 75 -145 78 -145 3 0 39 65 80 145 73 141 76 145
108 145 l32 0 0 -210 0 -210 -25 0 -25 0 -1 113 c0 61 0 136 1 166 1 29 -2 51
-7 48 -4 -3 -39 -69 -78 -146 -45 -92 -75 -141 -84 -139 -7 2 -47 66 -87 143
l-74 140 0 -115 c2 -221 3 -210 -25 -210 -18 0 -25 5 -25 20 0 11 -5 20 -12
20 -9 0 -9 3 0 12 8 8 12 65 12 190 l0 178 30 0 c29 0 33 -7 102 -145z m788
120 l0 -25 -115 0 -115 0 0 -65 0 -65 105 0 105 0 0 -25 0 -25 -105 0 -105 0
0 -70 0 -70 120 0 120 0 0 -25 0 -25 -150 0 -150 0 1 210 1 210 144 0 144 0 0
-25z m490 -185 l0 -210 -25 0 -25 0 0 210 0 210 25 0 25 0 0 -210z m425 196
c23 -10 35 -22 35 -35 0 -29 -13 -33 -54 -16 -52 22 -121 20 -146 -5 -21 -21
-23 -29 -14 -55 8 -19 39 -36 119 -64 70 -25 103 -53 111 -97 8 -42 -12 -82
-55 -111 -47 -32 -128 -31 -197 1 -60 28 -68 37 -51 60 11 15 16 14 61 -9 89
-45 186 -27 186 34 0 36 -23 56 -92 80 -113 39 -138 61 -138 121 0 42 15 67
53 90 39 24 132 27 182 6z m-9110 -6 c-3 -5 -10 -10 -16 -10 -5 0 -9 5 -9 10
0 6 7 10 16 10 8 0 12 -4 9 -10z m6675 1 c0 -5 -7 -11 -15 -15 -15 -5 -20 5
-8 17 9 10 23 9 23 -2z m-7050 -21 c0 -12 -28 -25 -36 -17 -9 9 6 27 22 27 8
0 14 -5 14 -10z m-1420 -39 c0 -15 -19 -23 -38 -16 -14 5 -14 7 -2 15 19 12
40 13 40 1z m3390 0 c0 -12 -20 -25 -27 -18 -7 7 6 27 18 27 5 0 9 -4 9 -9z
m8315 -1 c-3 -5 -11 -10 -16 -10 -6 0 -7 5 -4 10 3 6 11 10 16 10 6 0 7 -4 4
-10z m-13115 -20 c0 -5 -5 -10 -11 -10 -5 0 -7 5 -4 10 3 6 8 10 11 10 2 0 4
-4 4 -10z m19210 -25 c-7 -8 -18 -15 -24 -15 -6 0 -2 7 8 15 25 19 32 19 16 0z
m-1195 -25 c-3 -5 -11 -10 -16 -10 -6 0 -7 5 -4 10 3 6 11 10 16 10 6 0 7 -4
4 -10z m-17195 -40 c0 -5 -5 -10 -11 -10 -5 0 -7 5 -4 10 3 6 8 10 11 10 2 0
4 -4 4 -10z m382 -12 c-7 -7 -12 -8 -12 -2 0 14 12 26 19 19 2 -3 -1 -11 -7
-17z m1098 -28 c0 -12 -28 -25 -36 -17 -9 9 6 27 22 27 8 0 14 -5 14 -10z
m172 -32 c-7 -7 -12 -8 -12 -2 0 14 12 26 19 19 2 -3 -1 -11 -7 -17z m8500 0
c-7 -7 -12 -8 -12 -2 0 14 12 26 19 19 2 -3 -1 -11 -7 -17z m-8365 -5 c-9 -9
-20 -13 -24 -9 -4 4 -1 11 7 16 25 16 35 11 17 -7z m9633 -22 c0 -5 -7 -12
-16 -15 -14 -5 -15 -4 -4 9 14 17 20 19 20 6z m-3860 -36 c-7 -9 -15 -13 -17
-11 -7 7 7 26 19 26 6 0 6 -6 -2 -15z m-6595 -36 c-8 -12 -35 -12 -35 0 0 11
22 20 33 14 4 -2 5 -9 2 -14z m-265 -8 c0 -12 -39 -25 -48 -16 -7 7 17 25 36
25 6 0 12 -4 12 -9z m2335 -1 c-3 -5 -11 -10 -16 -10 -6 0 -7 5 -4 10 3 6 11
10 16 10 6 0 7 -4 4 -10z m3765 -5 c10 -13 10 -23 -5 -55 -24 -53 -43 -52 -41
3 2 63 20 83 46 52z m8710 -14 c0 -11 -51 -33 -59 -26 -8 8 41 45 51 39 4 -3
8 -9 8 -13z m-13490 -11 c-20 -13 -33 -13 -25 0 3 6 14 10 23 10 15 0 15 -2 2
-10z m2010 -5 c0 -8 -9 -19 -20 -25 -17 -9 -20 -8 -20 9 0 17 11 28 33 30 4 1
7 -6 7 -14z m-977 -10 c-3 -9 -8 -14 -10 -11 -3 3 -2 9 2 15 9 16 15 13 8 -4z
m767 11 c0 -3 -4 -8 -10 -11 -5 -3 -10 -1 -10 4 0 6 5 11 10 11 6 0 10 -2 10
-4z m9708 -8 c-3 -7 -13 -15 -24 -17 -16 -3 -17 -1 -5 13 16 19 34 21 29 4z
m-3403 -27 c-3 -6 -11 -11 -17 -11 -6 0 -6 6 2 15 14 17 26 13 15 -4z m-680
-10 c-3 -6 -11 -11 -17 -11 -6 0 -6 6 2 15 14 17 26 13 15 -4z m-6900 -1 c-3
-5 -10 -10 -16 -10 -5 0 -9 5 -9 10 0 6 7 10 16 10 8 0 12 -4 9 -10z m330 0
c-3 -5 -13 -10 -21 -10 -8 0 -12 5 -9 10 3 6 13 10 21 10 8 0 12 -4 9 -10z
m12030 0 c-3 -5 -11 -10 -16 -10 -6 0 -7 5 -4 10 3 6 11 10 16 10 6 0 7 -4 4
-10z m-7908 -27 c-9 -9 -20 -13 -24 -9 -4 4 1 14 11 22 25 18 35 8 13 -13z
m-3317 2 c-7 -9 -15 -13 -17 -11 -7 7 7 26 19 26 6 0 6 -6 -2 -15z m10312 -7
c-7 -7 -12 -8 -12 -2 0 14 12 26 19 19 2 -3 -1 -11 -7 -17z m-16712 8 c0 -2
-7 -6 -15 -10 -8 -3 -15 -1 -15 4 0 6 7 10 15 10 8 0 15 -2 15 -4z m11215 -6
c-3 -5 -11 -10 -16 -10 -6 0 -7 5 -4 10 3 6 11 10 16 10 6 0 7 -4 4 -10z
m4520 -9 c-3 -6 -11 -11 -17 -11 -6 0 -6 6 2 15 14 17 26 13 15 -4z m-8455 5
c0 -3 -4 -8 -10 -11 -5 -3 -10 -1 -10 4 0 6 5 11 10 11 6 0 10 -2 10 -4z
m5010 -6 c0 -5 -4 -10 -10 -10 -5 0 -10 5 -10 10 0 6 5 10 10 10 6 0 10 -4 10
-10z m-5302 -12 c-3 -7 -13 -15 -24 -17 -16 -3 -17 -1 -5 13 16 19 34 21 29 4z
m8972 3 c0 -13 -29 -35 -37 -28 -7 8 15 37 28 37 5 0 9 -4 9 -9z m-6380 -11
c0 -5 -5 -10 -11 -10 -5 0 -7 5 -4 10 3 6 8 10 11 10 2 0 4 -4 4 -10z m-3510
-20 c0 -16 -38 -32 -46 -19 -7 12 12 29 34 29 6 0 12 -4 12 -10z m-2400 -20
c0 -5 -5 -10 -11 -10 -5 0 -7 5 -4 10 3 6 8 10 11 10 2 0 4 -4 4 -10z m3700 0
c0 -5 -5 -10 -11 -10 -5 0 -7 5 -4 10 3 6 8 10 11 10 2 0 4 -4 4 -10z m-581
-36 c-9 -11 -15 -12 -23 -4 -8 8 -6 15 9 26 23 17 34 2 14 -22z m-669 -4 c0
-5 -4 -10 -10 -10 -5 0 -10 5 -10 10 0 6 5 10 10 10 6 0 10 -4 10 -10z m136
-26 c-14 -10 -23 -11 -30 -3 -8 7 -5 15 8 25 14 10 23 11 30 3 8 -7 5 -15 -8
-25z m-2526 17 c0 -15 -29 -33 -41 -25 -9 5 -7 11 6 21 22 15 35 17 35 4z
m1065 -11 c-3 -5 -10 -10 -16 -10 -5 0 -9 5 -9 10 0 6 7 10 16 10 8 0 12 -4 9
-10z m2379 -31 c-12 -13 -20 -16 -22 -9 -3 7 2 16 9 21 25 16 32 9 13 -12z
m5401 11 c-3 -5 -11 -10 -16 -10 -6 0 -7 5 -4 10 3 6 11 10 16 10 6 0 7 -4 4
-10z m-9425 -9 c0 -10 -30 -24 -37 -17 -3 3 -2 9 2 15 8 13 35 15 35 2z
m13660 -11 c0 -5 -5 -10 -11 -10 -5 0 -7 5 -4 10 3 6 8 10 11 10 2 0 4 -4 4
-10z m-12430 -10 c0 -5 -5 -10 -11 -10 -5 0 -7 5 -4 10 3 6 8 10 11 10 2 0 4
-4 4 -10z m4850 6 c0 -3 -4 -8 -10 -11 -5 -3 -10 -1 -10 4 0 6 5 11 10 11 6 0
10 -2 10 -4z m2590 -11 c-7 -8 -17 -15 -22 -15 -6 0 -5 7 2 15 7 8 17 15 22
15 6 0 5 -7 -2 -15z m8561 -17 c-13 -10 -31 -18 -40 -18 -12 1 -9 7 12 25 16
14 33 22 39 19 7 -5 3 -14 -11 -26z m-8190 -1 c-10 -9 -11 -8 -5 6 3 10 9 15
12 12 3 -3 0 -11 -7 -18z m4696 6 c-9 -9 -19 -14 -23 -11 -10 10 6 28 24 28
15 0 15 -1 -1 -17z m-14637 -18 c-7 -9 -15 -13 -19 -10 -3 3 1 10 9 15 21 14
24 12 10 -5z m5835 5 c-3 -5 -11 -10 -16 -10 -6 0 -7 5 -4 10 3 6 11 10 16 10
6 0 7 -4 4 -10z m-1038 -17 c-9 -9 -19 -14 -23 -11 -10 10 6 28 24 28 15 0 15
-1 -1 -17z m889 2 c-21 -16 -32 -13 -21 4 3 6 14 11 23 11 15 -1 15 -2 -2 -15z
m8281 -12 c-9 -9 -19 -14 -23 -11 -10 10 6 28 24 28 15 0 15 -1 -1 -17z
m-14417 -2 c0 -10 -30 -24 -37 -17 -3 3 -2 9 2 15 8 13 35 15 35 2z m3075 -1
c-3 -5 -11 -10 -16 -10 -6 0 -7 5 -4 10 3 6 11 10 16 10 6 0 7 -4 4 -10z
m2460 0 c-3 -5 -11 -10 -16 -10 -6 0 -7 5 -4 10 3 6 11 10 16 10 6 0 7 -4 4
-10z m7997 -12 c-6 -6 -15 -8 -19 -4 -4 4 -1 11 7 16 19 12 27 3 12 -12z
m-7902 -13 c-7 -9 -15 -13 -17 -11 -7 7 7 26 19 26 6 0 6 -6 -2 -15z m1407
-12 c-9 -9 -19 -14 -23 -11 -10 10 6 28 24 28 15 0 15 -1 -1 -17z m4858 -3
c-3 -5 -11 -10 -16 -10 -6 0 -7 5 -4 10 3 6 11 10 16 10 6 0 7 -4 4 -10z
m-10660 -20 c-3 -5 -11 -10 -16 -10 -6 0 -7 5 -4 10 3 6 11 10 16 10 6 0 7 -4
4 -10z m2934 -5 c-9 -9 -23 -13 -32 -9 -23 9 -14 19 19 22 26 2 27 1 13 -13z
m5021 -6 c-7 -11 -14 -18 -17 -15 -8 8 5 36 17 36 7 0 7 -6 0 -21z m-10540 -8
c0 -10 -30 -24 -37 -17 -3 3 -2 9 2 15 8 13 35 15 35 2z m9986 -38 c-10 -10
-19 5 -10 18 6 11 8 11 12 0 2 -7 1 -15 -2 -18z m-6146 2 c-7 -8 -16 -12 -21
-9 -13 8 -1 24 18 24 13 0 13 -3 3 -15z m952 -7 c-6 -6 -15 -8 -19 -4 -4 4 -1
11 7 16 19 12 27 3 12 -12z m3838 13 c0 -12 -20 -25 -27 -18 -7 7 6 27 18 27
5 0 9 -4 9 -9z m12091 -11 c-30 -26 -49 -26 -26 0 10 11 25 20 34 20 12 -1 10
-5 -8 -20z m-19201 0 c0 -5 -5 -10 -11 -10 -5 0 -7 5 -4 10 3 6 8 10 11 10 2
0 4 -4 4 -10z m3500 -14 c0 -7 -7 -19 -15 -26 -13 -10 -18 -11 -28 -1 -9 10
-8 15 7 27 25 18 36 18 36 0z m16375 -28 c-6 -15 -34 -28 -63 -28 -10 0 -10 4
0 19 24 39 77 46 63 9z m-10738 -5 c-9 -9 -19 -14 -23 -11 -10 10 6 28 24 28
15 0 15 -1 -1 -17z m-2737 -28 c-7 -9 -15 -13 -18 -10 -3 2 1 11 8 20 7 9 15
13 18 10 3 -2 -1 -11 -8 -20z m11490 16 c0 -5 -7 -12 -16 -15 -24 -9 -28 -7
-14 9 14 17 30 20 30 6z m-13600 -16 c-7 -9 -15 -13 -17 -11 -7 7 7 26 19 26
6 0 6 -6 -2 -15z m7477 -22 c-9 -9 -19 -14 -23 -11 -10 10 6 28 24 28 15 0 15
-1 -1 -17z m-9817 3 c0 -3 -4 -8 -10 -11 -5 -3 -10 -1 -10 4 0 6 5 11 10 11 6
0 10 -2 10 -4z m5060 -6 c-8 -5 -19 -10 -25 -10 -5 0 -3 5 5 10 8 5 20 10 25
10 6 0 3 -5 -5 -10z m-8702 -32 c-3 -7 -15 -14 -29 -16 -23 -2 -23 -2 -5 13
24 18 39 20 34 3z m18780 0 c-3 -7 -13 -15 -24 -17 -16 -3 -17 -1 -5 13 16 19
34 21 29 4z m-10448 -8 c0 -5 -5 -10 -11 -10 -5 0 -7 5 -4 10 3 6 8 10 11 10
2 0 4 -4 4 -10z m7530 6 c0 -3 -4 -8 -10 -11 -5 -3 -10 -1 -10 4 0 6 5 11 10
11 6 0 10 -2 10 -4z m-11682 -18 c-3 -7 -13 -15 -24 -17 -16 -3 -17 -1 -5 13
16 19 34 21 29 4z m112 -8 c0 -7 -24 -20 -36 -20 -2 0 -4 9 -4 19 0 14 5 18
20 14 11 -3 20 -9 20 -13z m11239 -21 c-19 -12 -24 -2 -8 17 9 11 14 13 17 4
3 -7 -2 -16 -9 -21z m5711 16 c-7 -9 -15 -13 -19 -10 -3 3 1 10 9 15 21 14 24
12 10 -5z m-18010 -4 c0 -5 -7 -11 -15 -15 -15 -5 -20 5 -8 17 9 10 23 9 23
-2z m1510 0 c0 -5 -6 -14 -14 -20 -11 -9 -16 -9 -21 0 -4 6 -1 15 6 20 18 11
29 11 29 0z m2590 5 c0 -3 -4 -8 -10 -11 -5 -3 -10 -1 -10 4 0 6 5 11 10 11 6
0 10 -2 10 -4z m10 -36 c0 -5 -7 -10 -16 -10 -8 0 -12 5 -9 10 3 6 10 10 16
10 5 0 9 -4 9 -10z m4290 -5 c-7 -9 -15 -13 -17 -11 -7 7 7 26 19 26 6 0 6 -6
-2 -15z m9335 -4 c-3 -6 -14 -11 -23 -11 -15 1 -15 2 2 15 21 16 32 13 21 -4z
m-2475 -5 c0 -15 -29 -30 -39 -20 -3 3 3 12 13 20 24 17 26 17 26 0z m-10122
-18 c-3 -7 -13 -15 -24 -17 -16 -3 -17 -1 -5 13 16 19 34 21 29 4z m2372 -23
c-7 -9 -15 -13 -17 -11 -7 7 7 26 19 26 6 0 6 -6 -2 -15z m-6963 -12 c-9 -9
-19 -14 -23 -11 -10 10 6 28 24 28 15 0 15 -1 -1 -17z m4135 -35 c-7 -7 -12
-8 -12 -2 0 14 12 26 19 19 2 -3 -1 -11 -7 -17z m6695 5 c-9 -9 -19 -14 -23
-11 -10 10 6 28 24 28 15 0 15 -1 -1 -17z m-14219 -5 c-5 -16 -48 -24 -48 -10
0 11 17 20 38 21 8 1 12 -5 10 -11z m7912 -23 c-7 -9 -15 -13 -17 -11 -7 7 7
26 19 26 6 0 6 -6 -2 -15z m410 11 c0 -3 -4 -8 -10 -11 -5 -3 -10 -1 -10 4 0
6 5 11 10 11 6 0 10 -2 10 -4z m6290 -21 c-7 -9 -15 -13 -17 -11 -7 7 7 26 19
26 6 0 6 -6 -2 -15z m-1103 -32 c-15 -16 -17 -16 -17 -1 0 9 6 18 13 21 20 7
22 -2 4 -20z m-4437 13 c0 -3 -4 -8 -10 -11 -5 -3 -10 -1 -10 4 0 6 5 11 10
11 6 0 10 -2 10 -4z m5315 -26 c-3 -5 -11 -10 -16 -10 -6 0 -7 5 -4 10 3 6 11
10 16 10 6 0 7 -4 4 -10z m-1980 -10 c-3 -5 -11 -10 -16 -10 -6 0 -7 5 -4 10
3 6 11 10 16 10 6 0 7 -4 4 -10z m557 -32 c-7 -7 -12 -8 -12 -2 0 14 12 26 19
19 2 -3 -1 -11 -7 -17z m-3177 2 c-3 -5 -11 -10 -16 -10 -6 0 -7 5 -4 10 3 6
11 10 16 10 6 0 7 -4 4 -10z m-5045 -19 c0 -5 -7 -11 -15 -15 -15 -5 -20 5 -8
17 9 10 23 9 23 -2z m3965 -20 c-3 -6 -11 -11 -17 -11 -6 0 -6 6 2 15 14 17
26 13 15 -4z m5263 -3 c-6 -16 -36 -34 -44 -25 -9 9 15 37 33 37 8 0 13 -5 11
-12z m-9183 -18 c-3 -5 -11 -10 -16 -10 -6 0 -7 5 -4 10 3 6 11 10 16 10 6 0
7 -4 4 -10z m-3905 -25 c-14 -16 -40 -20 -40 -6 0 10 17 19 39 20 11 1 11 -2
1 -14z m4216 -5 c18 0 18 -14 -1 -30 -11 -10 -18 -9 -30 3 -8 9 -15 20 -15 25
0 13 24 22 28 11 2 -5 10 -9 18 -9z m6712 8 c-3 -7 -13 -15 -24 -17 -16 -3
-17 -1 -5 13 16 19 34 21 29 4z m1922 2 c0 -5 -5 -10 -11 -10 -5 0 -7 5 -4 10
3 6 8 10 11 10 2 0 4 -4 4 -10z m1200 -15 c-7 -9 -15 -13 -17 -11 -7 7 7 26
19 26 6 0 6 -6 -2 -15z m-5010 -5 c0 -5 -5 -10 -11 -10 -5 0 -7 5 -4 10 3 6 8
10 11 10 2 0 4 -4 4 -10z m-3123 -17 c-9 -9 -20 -13 -24 -9 -4 4 -1 11 7 16
25 16 35 11 17 -7z m-5252 -2 c3 -6 -3 -15 -14 -21 -24 -12 -42 7 -20 21 18
11 26 11 34 0z m3945 -11 c0 -13 -28 -25 -38 -16 -3 4 0 11 8 16 20 13 30 12
30 0z m-1195 -10 c-3 -5 -11 -10 -16 -10 -6 0 -7 5 -4 10 3 6 11 10 16 10 6 0
7 -4 4 -10z m4165 1 c0 -12 -20 -25 -27 -18 -7 7 6 27 18 27 5 0 9 -4 9 -9z
m4575 -1 c-3 -5 -13 -10 -21 -10 -8 0 -12 5 -9 10 3 6 13 10 21 10 8 0 12 -4
9 -10z m-2195 -10 c0 -16 -34 -28 -55 -20 -19 8 -19 8 5 18 32 14 50 14 50 2z
m-3140 -10 c0 -5 -5 -10 -11 -10 -5 0 -7 5 -4 10 3 6 8 10 11 10 2 0 4 -4 4
-10z m12951 -11 c-13 -11 -27 -17 -30 -13 -7 7 28 34 43 34 6 -1 0 -10 -13
-21z m-15281 2 c0 -10 -30 -24 -37 -17 -3 3 -2 9 2 15 8 13 35 15 35 2z
m-3178 -33 c-7 -7 -12 -8 -12 -2 0 14 12 26 19 19 2 -3 -1 -11 -7 -17z m2638
-33 c-7 -9 -15 -13 -17 -11 -7 7 7 26 19 26 6 0 6 -6 -2 -15z m-3205 -5 c-3
-5 -13 -10 -21 -10 -8 0 -12 5 -9 10 3 6 13 10 21 10 8 0 12 -4 9 -10z m11702
-7 c-9 -9 -19 -14 -23 -11 -10 10 6 28 24 28 15 0 15 -1 -1 -17z m-5972 -12
c-3 -6 -11 -11 -17 -11 -6 0 -6 6 2 15 14 17 26 13 15 -4z m5255 10 c0 -5 -7
-11 -15 -15 -15 -5 -20 5 -8 17 9 10 23 9 23 -2z m-7220 -11 c0 -5 -5 -10 -11
-10 -5 0 -7 5 -4 10 3 6 8 10 11 10 2 0 4 -4 4 -10z m-2500 -9 c0 -10 -30 -24
-37 -17 -3 3 -2 9 2 15 8 13 35 15 35 2z m15960 -41 c-8 -5 -17 -7 -19 -4 -3
3 1 9 9 14 8 5 17 7 19 4 3 -3 -1 -9 -9 -14z m-4922 -12 c-2 -6 -10 -14 -16
-16 -7 -2 -10 2 -6 12 7 18 28 22 22 4z m-4078 -8 c0 -5 -9 -14 -20 -20 -22
-12 -27 -1 -8 18 14 14 28 16 28 2z m6139 -26 c-12 -14 -39 -19 -39 -8 0 11
34 33 43 27 4 -3 3 -11 -4 -19z m4211 6 c0 -5 -7 -10 -16 -10 -8 0 -12 5 -9
10 3 6 10 10 16 10 5 0 9 -4 9 -10z m-15240 -35 c-9 -11 -16 -13 -23 -6 -7 7
-6 15 3 26 9 11 16 13 23 6 7 -7 6 -15 -3 -26z m710 -1045 l0 -1070 305 0 305
0 0 -120 0 -120 -470 0 -470 0 0 1190 0 1190 165 0 165 0 0 -1070z m1053 1055
c7 -18 -6 -27 -27 -19 -13 5 -14 9 -5 20 15 18 25 18 32 -1z m781 -37 c8 -38
13 -48 30 -48 18 0 18 -1 3 -12 -16 -12 -4 -75 155 -820 159 -745 174 -806
190 -797 23 12 25 -6 2 -19 -14 -8 -11 -31 27 -203 23 -107 46 -218 51 -247 8
-43 13 -51 24 -41 11 9 14 8 14 -5 0 -9 -5 -16 -11 -16 -11 0 -8 -31 8 -97 l5
-23 -156 0 c-153 0 -156 0 -161 23 -3 12 -26 135 -50 272 -25 138 -48 262 -51
278 l-6 27 -242 0 -242 0 -48 -252 c-27 -139 -53 -274 -58 -300 l-10 -48 -154
0 c-85 0 -154 1 -154 3 0 3 152 722 350 1652 61 286 112 534 115 550 3 17 13
63 22 103 l17 72 160 -2 161 -3 9 -47z m1328 -835 c3 -803 6 -896 21 -972 44
-207 123 -282 297 -282 129 0 216 51 260 153 53 123 53 125 57 1091 l4 897
155 0 154 0 0 -567 c1 -1253 1 -1250 -41 -1418 -39 -151 -115 -265 -226 -335
-23 -15 -40 -30 -37 -33 3 -3 0 -8 -7 -13 -8 -5 -10 -3 -4 6 6 10 3 11 -16 6
-13 -4 -46 -15 -74 -23 -77 -23 -302 -29 -402 -10 -216 41 -355 176 -412 399
-38 148 -41 230 -41 1121 l0 867 154 0 155 0 3 -887z m2228 877 c187 -23 301
-70 390 -159 115 -114 156 -259 147 -511 -6 -161 -15 -204 -61 -302 -36 -76
-83 -127 -159 -171 l-65 -39 20 -76 c11 -42 26 -81 32 -87 6 -5 10 -19 9 -30
-2 -11 60 -238 136 -505 l138 -485 -155 -3 c-86 -1 -158 1 -162 5 -4 5 -76
257 -160 561 l-154 552 -128 0 -128 0 0 -560 0 -560 -167 0 -168 0 2 798 c2
438 3 974 3 1190 l0 392 273 0 c150 0 311 -5 357 -10z m2110 -110 l0 -120 -57
0 c-32 -1 -165 0 -295 0 l-238 1 0 -395 0 -396 238 -2 237 -3 3 -117 3 -118
-241 0 -240 0 0 -435 1 -435 294 0 295 0 0 -120 0 -120 -464 0 -465 0 5 961
c4 730 2 964 -7 975 -9 11 -9 17 1 28 8 10 11 55 9 143 -1 70 -1 161 0 201 l1
72 460 0 460 0 0 -120z m1125 -664 c184 -428 337 -781 340 -784 3 -4 5 113 5
258 -1 146 -1 500 0 788 l0 522 135 0 135 0 0 -541 c0 -536 0 -540 20 -534 11
4 20 2 20 -4 0 -6 -9 -16 -20 -23 -20 -13 -20 -24 -20 -645 l0 -633 -104 0
-104 0 -79 188 c-44 103 -196 464 -339 802 l-259 616 -3 -803 -2 -803 -145 0
-145 0 0 270 c0 233 -2 270 -15 270 -19 0 -19 16 -1 27 12 7 15 129 18 793 1
432 5 838 6 903 l4 118 110 -3 110 -3 333 -779z m3981 718 c-34 -25 -52 -17
-26 11 17 18 27 22 34 14 8 -7 5 -15 -8 -25z m-4986 -4 c0 -5 -5 -10 -11 -10
-5 0 -7 5 -4 10 3 6 8 10 11 10 2 0 4 -4 4 -10z m-5635 -19 c-3 -6 -11 -11
-17 -11 -6 0 -6 6 2 15 14 17 26 13 15 -4z m12245 -20 c0 -5 -7 -11 -15 -15
-15 -5 -20 5 -8 17 9 10 23 9 23 -2z m-14120 -16 c-7 -9 -15 -13 -17 -11 -7 7
7 26 19 26 6 0 6 -6 -2 -15z m712 -17 c-7 -7 -12 -8 -12 -2 0 14 12 26 19 19
2 -3 -1 -11 -7 -17z m543 -7 c-3 -6 -11 -11 -17 -11 -6 0 -6 6 2 15 14 17 26
13 15 -4z m10082 2 c-9 -9 -19 -14 -23 -11 -10 10 6 28 24 28 15 0 15 -1 -1
-17z m-567 -7 c0 -15 -37 -32 -47 -22 -9 8 17 36 33 36 8 0 14 -6 14 -14z
m-13180 -6 c0 -5 -5 -10 -11 -10 -5 0 -7 5 -4 10 3 6 8 10 11 10 2 0 4 -4 4
-10z m12470 1 c0 -5 -7 -12 -16 -15 -24 -9 -28 -7 -14 9 14 17 30 20 30 6z
m-11643 -17 c-3 -3 -12 -4 -19 -1 -8 3 -5 6 6 6 11 1 17 -2 13 -5z m7578 -14
c-3 -5 -11 -10 -16 -10 -6 0 -7 5 -4 10 3 6 11 10 16 10 6 0 7 -4 4 -10z
m-8800 -10 c-3 -5 -11 -10 -16 -10 -6 0 -7 5 -4 10 3 6 11 10 16 10 6 0 7 -4
4 -10z m6390 0 c-3 -5 -11 -10 -16 -10 -6 0 -7 5 -4 10 3 6 11 10 16 10 6 0 7
-4 4 -10z m-4165 -20 c0 -13 -28 -25 -38 -16 -3 4 0 11 8 16 20 13 30 12 30 0z
m1900 -10 c0 -5 -9 -14 -20 -20 -22 -12 -27 -1 -8 18 14 14 28 16 28 2z m2780
-4 c0 -2 -7 -7 -16 -10 -8 -3 -12 -2 -9 4 6 10 25 14 25 6z m2350 0 c0 -3 -4
-8 -10 -11 -5 -3 -10 -1 -10 4 0 6 5 11 10 11 6 0 10 -2 10 -4z m8636 -21
c-26 -19 -42 -19 -26 0 7 8 20 15 29 15 13 -1 13 -3 -3 -15z m-16031 -15 c-16
-11 -34 -20 -38 -20 -14 0 4 21 27 30 37 15 42 11 11 -10z m-115 6 c0 -2 -7
-7 -16 -10 -8 -3 -12 -2 -9 4 6 10 25 14 25 6z m610 -16 c0 -5 -5 -10 -11 -10
-5 0 -7 5 -4 10 3 6 8 10 11 10 2 0 4 -4 4 -10z m-2165 -19 c-3 -6 -11 -11
-17 -11 -6 0 -6 6 2 15 14 17 26 13 15 -4z m13975 4 c-7 -8 -17 -15 -22 -15
-6 0 -5 7 2 15 7 8 17 15 22 15 6 0 5 -7 -2 -15z m-11990 -9 c0 -3 -4 -8 -10
-11 -5 -3 -10 -1 -10 4 0 6 5 11 10 11 6 0 10 -2 10 -4z m7665 -6 c-3 -5 -11
-10 -16 -10 -6 0 -7 5 -4 10 3 6 11 10 16 10 6 0 7 -4 4 -10z m-10085 -9 c0
-5 -7 -11 -15 -15 -15 -5 -20 5 -8 17 9 10 23 9 23 -2z m15506 -6 c-11 -8 -22
-12 -25 -9 -6 6 19 24 34 24 6 -1 1 -7 -9 -15z m-15256 -5 c0 -5 -5 -10 -11
-10 -5 0 -7 5 -4 10 3 6 8 10 11 10 2 0 4 -4 4 -10z m-538 -42 c-7 -7 -12 -8
-12 -2 0 14 12 26 19 19 2 -3 -1 -11 -7 -17z m-467 2 c-3 -5 -10 -10 -16 -10
-5 0 -9 5 -9 10 0 6 7 10 16 10 8 0 12 -4 9 -10z m950 -10 c-3 -5 -11 -10 -16
-10 -6 0 -7 5 -4 10 3 6 11 10 16 10 6 0 7 -4 4 -10z m10075 1 c0 -5 -7 -11
-15 -15 -15 -5 -20 5 -8 17 9 10 23 9 23 -2z m4150 -15 c0 -2 -7 -7 -16 -10
-8 -3 -12 -2 -9 4 6 10 25 14 25 6z m-11960 -25 c0 -12 -20 -25 -27 -18 -7 7
6 27 18 27 5 0 9 -4 9 -9z m7888 -13 c-2 -6 -10 -14 -16 -16 -7 -2 -10 2 -6
12 7 18 28 22 22 4z m5986 -59 c-18 -20 -44 -26 -44 -10 0 14 42 41 52 35 5
-3 2 -15 -8 -25z m-16917 -4 c-7 -16 -37 -21 -37 -5 0 10 32 31 39 25 2 -2 1
-11 -2 -20z m4623 -4 c0 -5 -7 -14 -15 -21 -12 -10 -15 -10 -15 2 0 8 3 18 7
21 9 10 23 9 23 -2z m6311 -34 c-13 -13 -26 -3 -16 12 3 6 11 8 17 5 6 -4 6
-10 -1 -17z m6019 9 c0 -15 -29 -30 -39 -20 -3 3 3 12 13 20 24 17 26 17 26 0z
m-15180 -6 c0 -5 -9 -14 -20 -20 -22 -12 -27 -1 -8 18 14 14 28 16 28 2z
m2855 -19 c-3 -6 -11 -11 -17 -11 -6 0 -6 6 2 15 14 17 26 13 15 -4z m-2685
-16 c-7 -9 -15 -13 -17 -11 -7 7 7 26 19 26 6 0 6 -6 -2 -15z m5280 11 c0 -3
-4 -8 -10 -11 -5 -3 -10 -1 -10 4 0 6 5 11 10 11 6 0 10 -2 10 -4z m-6360 -16
c0 -5 -5 -10 -11 -10 -5 0 -7 5 -4 10 3 6 8 10 11 10 2 0 4 -4 4 -10z m1580
-28 c0 -13 -12 -22 -22 -16 -10 6 -1 24 13 24 5 0 9 -4 9 -8z m162 -24 c-7 -7
-12 -8 -12 -2 0 14 12 26 19 19 2 -3 -1 -11 -7 -17z m-452 -8 c0 -5 -5 -10
-11 -10 -5 0 -7 5 -4 10 3 6 8 10 11 10 2 0 4 -4 4 -10z m8600 -25 c-7 -9 -15
-13 -17 -11 -7 7 7 26 19 26 6 0 6 -6 -2 -15z m7760 0 c-7 -8 -20 -15 -29 -15
-13 1 -13 3 3 15 26 19 42 19 26 0z m-14030 -34 c0 -5 -7 -12 -16 -15 -24 -9
-28 -7 -14 9 14 17 30 20 30 6z m1775 -10 c-3 -6 -11 -11 -17 -11 -6 0 -6 6 2
15 14 17 26 13 15 -4z m5315 -5 c0 -3 -4 -8 -10 -11 -5 -3 -10 -1 -10 4 0 6 5
11 10 11 6 0 10 -2 10 -4z m7450 0 c0 -2 -7 -7 -16 -10 -8 -3 -12 -2 -9 4 6
10 25 14 25 6z m-12920 -15 c0 -5 -7 -11 -14 -14 -10 -4 -13 -1 -9 9 6 15 23
19 23 5z m6710 -6 c-7 -9 -15 -13 -17 -11 -7 7 7 26 19 26 6 0 6 -6 -2 -15z
m-7985 -14 c-3 -6 -11 -11 -17 -11 -6 0 -6 6 2 15 14 17 26 13 15 -4z m7565
10 c0 -12 -20 -25 -27 -18 -7 7 6 27 18 27 5 0 9 -4 9 -9z m4205 -30 c-3 -6
-11 -11 -17 -11 -6 0 -6 6 2 15 14 17 26 13 15 -4z m-1075 -15 c0 -3 -4 -8
-10 -11 -5 -3 -10 -1 -10 4 0 6 5 11 10 11 6 0 10 -2 10 -4z m576 -11 c-26
-19 -42 -19 -26 0 7 8 20 15 29 15 13 -1 13 -3 -3 -15z m1584 -15 c-24 -15
-37 -11 -16 5 11 8 22 12 25 9 3 -3 -1 -9 -9 -14z m-11505 -10 c-10 -11 -22
-17 -27 -14 -12 8 11 34 30 34 13 0 12 -3 -3 -20z m1975 -4 c0 -3 -4 -8 -10
-11 -5 -3 -10 -1 -10 4 0 6 5 11 10 11 6 0 10 -2 10 -4z m3105 -26 c-3 -5 -11
-10 -16 -10 -6 0 -7 5 -4 10 3 6 11 10 16 10 6 0 7 -4 4 -10z m-8645 -19 c0
-15 -29 -33 -41 -25 -9 5 -7 11 6 21 22 15 35 17 35 4z m-1118 -53 c-6 -6 -15
-8 -19 -4 -4 4 -1 11 7 16 19 12 27 3 12 -12z m998 7 c-7 -9 -15 -13 -17 -11
-7 7 7 26 19 26 6 0 6 -6 -2 -15z m2260 6 c0 -5 -7 -14 -15 -21 -12 -10 -15
-10 -15 2 0 8 3 18 7 21 9 10 23 9 23 -2z m-460 -10 c0 -5 -7 -14 -15 -21 -12
-10 -15 -10 -15 2 0 8 3 18 7 21 9 10 23 9 23 -2z m3825 -57 c-23 -17 -32 -10
-15 11 7 8 17 12 23 8 6 -4 3 -11 -8 -19z m-3425 -9 c-7 -9 -15 -13 -17 -11
-7 7 7 26 19 26 6 0 6 -6 -2 -15z m-920 -14 c0 -12 -20 -25 -27 -18 -7 7 6 27
18 27 5 0 9 -4 9 -9z m9526 -6 c-21 -16 -32 -13 -21 4 3 6 14 11 23 11 15 -1
15 -2 -2 -15z m-3561 -44 c-3 -6 -11 -11 -17 -11 -6 0 -6 6 2 15 14 17 26 13
15 -4z m-7535 0 c0 -5 -7 -12 -16 -15 -14 -5 -15 -4 -4 9 14 17 20 19 20 6z
m10230 -10 c0 -12 -20 -25 -27 -18 -7 7 6 27 18 27 5 0 9 -4 9 -9z m5295 -1
c-3 -5 -11 -10 -16 -10 -6 0 -7 5 -4 10 3 6 11 10 16 10 6 0 7 -4 4 -10z
m-13578 -27 c-9 -9 -19 -14 -23 -11 -10 10 6 28 24 28 15 0 15 -1 -1 -17z
m8968 -4 c-10 -15 -25 -10 -19 6 4 8 10 12 15 9 5 -3 7 -10 4 -15z m-6140 1
c-3 -5 -11 -10 -16 -10 -6 0 -7 5 -4 10 3 6 11 10 16 10 6 0 7 -4 4 -10z
m-5090 -10 c-3 -5 -12 -10 -18 -10 -7 0 -6 4 3 10 19 12 23 12 15 0z m17320 0
c-3 -5 -12 -10 -18 -10 -7 0 -6 4 3 10 19 12 23 12 15 0z m-14693 -82 c-7 -7
-12 -8 -12 -2 0 14 12 26 19 19 2 -3 -1 -11 -7 -17z m-3892 3 c0 -5 -7 -11
-15 -15 -15 -5 -20 5 -8 17 9 10 23 9 23 -2z m5690 -11 c0 -5 -7 -10 -16 -10
-8 0 -12 5 -9 10 3 6 10 10 16 10 5 0 9 -4 9 -10z m-4080 -4 c0 -2 -7 -6 -15
-10 -8 -3 -15 -1 -15 4 0 6 7 10 15 10 8 0 15 -2 15 -4z m5720 -11 c-7 -9 -15
-13 -17 -11 -7 7 7 26 19 26 6 0 6 -6 -2 -15z m-5575 -74 c-3 -6 -14 -11 -23
-11 -15 1 -15 2 2 15 21 16 32 13 21 -4z m105 10 c0 -5 -7 -12 -16 -15 -24 -9
-28 -7 -14 9 14 17 30 20 30 6z m1650 -25 c0 -3 -4 -8 -10 -11 -5 -3 -10 -1
-10 4 0 6 5 11 10 11 6 0 10 -2 10 -4z m-110 -31 c-7 -9 -15 -13 -17 -11 -7 7
7 26 19 26 6 0 6 -6 -2 -15z m4775 -34 c-3 -6 -11 -11 -17 -11 -6 0 -6 6 2 15
14 17 26 13 15 -4z m4275 9 c0 -5 -7 -10 -16 -10 -8 0 -12 5 -9 10 3 6 10 10
16 10 5 0 9 -4 9 -10z m-10840 -45 c-7 -9 -15 -13 -18 -10 -3 2 1 11 8 20 7 9
15 13 18 10 3 -2 -1 -11 -8 -20z m5849 -45 c-22 -14 -34 2 -13 17 13 10 20 10
23 2 2 -6 -3 -15 -10 -19z m7677 -8 c-8 -9 -19 -13 -22 -9 -10 9 16 38 28 31
6 -4 4 -13 -6 -22z m-9486 9 c0 -13 -29 -35 -37 -28 -7 8 15 37 28 37 5 0 9
-4 9 -9z m-5270 -11 c0 -5 -5 -10 -11 -10 -5 0 -7 5 -4 10 3 6 8 10 11 10 2 0
4 -4 4 -10z m11040 1 c0 -6 -10 -17 -22 -26 -26 -17 -37 -3 -18 20 14 17 40
20 40 6z m-1132 -13 c-3 -7 -13 -15 -24 -17 -16 -3 -17 -1 -5 13 16 19 34 21
29 4z m8288 -3 c-23 -17 -36 -19 -36 -6 0 11 18 19 40 20 11 0 10 -3 -4 -14z
m-12146 -10 c-7 -8 -17 -15 -22 -15 -6 0 -5 7 2 15 7 8 17 15 22 15 6 0 5 -7
-2 -15z m210 -4 c0 -5 -7 -11 -15 -15 -15 -5 -20 5 -8 17 9 10 23 9 23 -2z
m-4670 -10 c0 -5 -7 -11 -15 -15 -15 -5 -20 5 -8 17 9 10 23 9 23 -2z m1160 5
c0 -3 -4 -8 -10 -11 -5 -3 -10 -1 -10 4 0 6 5 11 10 11 6 0 10 -2 10 -4z
m7205 -6 c-3 -5 -11 -10 -16 -10 -6 0 -7 5 -4 10 3 6 11 10 16 10 6 0 7 -4 4
-10z m253 -22 c-3 -7 -13 -15 -24 -17 -16 -3 -17 -1 -5 13 16 19 34 21 29 4z
m83 -41 c-16 -16 -26 0 -10 19 9 11 15 12 17 4 2 -6 -1 -17 -7 -23z m129 24
c0 -13 -29 -35 -37 -28 -7 8 15 37 28 37 5 0 9 -4 9 -9z m-8740 -10 c0 -12
-20 -25 -27 -18 -7 7 6 27 18 27 5 0 9 -4 9 -9z m4488 -23 c-2 -6 -10 -14 -16
-16 -7 -2 -10 2 -6 12 7 18 28 22 22 4z m1029 -15 c-1 -14 -9 -29 -17 -31 -12
-4 -13 -3 -3 10 7 8 10 18 7 21 -6 5 3 27 11 27 2 0 3 -12 2 -27z m2698 -3
c-3 -5 -11 -10 -16 -10 -6 0 -7 5 -4 10 3 6 11 10 16 10 6 0 7 -4 4 -10z m580
0 c-3 -5 -11 -10 -16 -10 -6 0 -7 5 -4 10 3 6 11 10 16 10 6 0 7 -4 4 -10z
m2260 0 c-3 -5 -11 -10 -16 -10 -6 0 -7 5 -4 10 3 6 11 10 16 10 6 0 7 -4 4
-10z m825 -9 c0 -5 -7 -12 -16 -15 -24 -9 -28 -7 -14 9 14 17 30 20 30 6z
m-3730 -10 c0 -5 -7 -14 -15 -21 -12 -10 -15 -10 -15 2 0 8 3 18 7 21 9 10 23
9 23 -2z m-7090 -16 c-7 -9 -15 -13 -17 -11 -7 7 7 26 19 26 6 0 6 -6 -2 -15z
m-1570 -60 c-7 -8 -16 -12 -21 -9 -13 8 -1 24 18 24 13 0 13 -3 3 -15z m7568
-47 c-2 -6 -10 -14 -16 -16 -7 -2 -10 2 -6 12 7 18 28 22 22 4z m1079 -25 c-9
-9 -20 -12 -28 -8 -9 6 -8 11 6 21 23 17 42 6 22 -13z m-6270 0 c-9 -9 -19
-14 -23 -11 -10 10 6 28 24 28 15 0 15 -1 -1 -17z m8850 -10 c-9 -9 -19 -14
-23 -11 -10 10 6 28 24 28 15 0 15 -1 -1 -17z m-6505 -45 c-6 -6 -15 -8 -19
-4 -4 4 -1 11 7 16 19 12 27 3 12 -12z m378 7 c-7 -9 -15 -13 -17 -11 -7 7 7
26 19 26 6 0 6 -6 -2 -15z m-6280 -4 c0 -16 -30 -33 -47 -26 -17 6 -17 7 1 21
22 16 46 19 46 5z m30 -6 c-7 -9 -15 -13 -17 -11 -7 7 7 26 19 26 6 0 6 -6 -2
-15z m1614 -50 c-7 -16 -24 -21 -24 -6 0 8 7 13 27 20 1 1 0 -6 -3 -14z m1396
-4 c0 -12 -20 -25 -27 -18 -7 7 6 27 18 27 5 0 9 -4 9 -9z m4098 -13 c-3 -7
-13 -15 -24 -17 -16 -3 -17 -1 -5 13 16 19 34 21 29 4z m1572 -7 c0 -11 -31
-24 -39 -16 -3 3 1 10 9 15 19 12 30 12 30 1z m-8220 -26 c-7 -8 -19 -15 -27
-15 -13 0 -13 3 -3 15 7 8 19 15 27 15 13 0 13 -3 3 -15z m6326 -33 c-8 -9
-19 -13 -22 -9 -10 9 16 38 28 31 6 -4 4 -13 -6 -22z m-2572 -13 c-9 -10 -21
-16 -26 -13 -5 3 -2 14 8 25 9 10 21 16 26 13 5 -3 2 -14 -8 -25z m6156 22 c0
-5 -7 -11 -15 -15 -15 -5 -20 5 -8 17 9 10 23 9 23 -2z m2610 -20 c0 -12 -20
-25 -27 -18 -7 7 6 27 18 27 5 0 9 -4 9 -9z m-11045 -11 c-3 -5 -11 -10 -16
-10 -6 0 -7 5 -4 10 3 6 11 10 16 10 6 0 7 -4 4 -10z m3160 -20 c-3 -5 -11
-10 -16 -10 -6 0 -7 5 -4 10 3 6 11 10 16 10 6 0 7 -4 4 -10z m9592 -7 c-9 -9
-20 -13 -24 -9 -4 4 -1 11 7 16 25 16 35 11 17 -7z m-14337 -27 c0 -15 -37
-32 -47 -22 -9 8 17 36 33 36 8 0 14 -6 14 -14z m9772 -48 c-7 -7 -12 -8 -12
-2 0 14 12 26 19 19 2 -3 -1 -11 -7 -17z m-10632 3 c0 -12 -39 -25 -48 -16 -7
7 17 25 36 25 6 0 12 -4 12 -9z m7167 -18 c-9 -9 -20 -13 -24 -9 -4 4 -1 11 7
16 25 16 35 11 17 -7z m10853 -13 c-8 -5 -17 -7 -19 -4 -3 3 1 9 9 14 8 5 17
7 19 4 3 -3 -1 -9 -9 -14z m-7258 -12 c-7 -7 -12 -8 -12 -2 0 14 12 26 19 19
2 -3 -1 -11 -7 -17z m-1482 -6 c0 -10 -41 -35 -47 -28 -9 8 17 36 33 36 8 0
14 -3 14 -8z m1330 -2 c0 -5 -4 -10 -10 -10 -5 0 -10 5 -10 10 0 6 5 10 10 10
6 0 10 -4 10 -10z m-1075 -19 c-3 -6 -11 -11 -17 -11 -6 0 -6 6 2 15 14 17 26
13 15 -4z m6355 -21 c-8 -5 -17 -7 -19 -4 -3 3 1 9 9 14 8 5 17 7 19 4 3 -3
-1 -9 -9 -14z m430 10 c0 -5 -5 -10 -11 -10 -5 0 -7 5 -4 10 3 6 8 10 11 10 2
0 4 -4 4 -10z m-15920 -18 c0 -10 -22 -32 -32 -32 -13 0 -9 28 5 33 19 8 27 8
27 -1z m13620 4 c0 -3 -4 -8 -10 -11 -5 -3 -10 -1 -10 4 0 6 5 11 10 11 6 0
10 -2 10 -4z m-13392 -28 c-3 -7 -13 -15 -24 -17 -16 -3 -17 -1 -5 13 16 19
34 21 29 4z m17121 -19 c-24 -15 -45 -11 -24 5 11 8 24 12 28 9 5 -3 3 -9 -4
-14z m-13834 1 c-3 -5 -11 -10 -16 -10 -6 0 -7 5 -4 10 3 6 11 10 16 10 6 0 7
-4 4 -10z m5590 0 c-3 -5 -11 -10 -16 -10 -6 0 -7 5 -4 10 3 6 11 10 16 10 6
0 7 -4 4 -10z m-8137 -12 c-3 -7 -13 -15 -24 -17 -16 -3 -17 -1 -5 13 16 19
34 21 29 4z m13452 -38 c0 -12 -40 -33 -48 -25 -4 4 2 13 12 21 23 16 36 18
36 4z m-1670 -30 c0 -5 -8 -10 -17 -10 -15 0 -16 2 -3 10 19 12 20 12 20 0z
m725 0 c-3 -5 -14 -10 -23 -10 -15 0 -15 2 -2 10 20 13 33 13 25 0z m3505 -50
c0 -12 -40 -34 -47 -26 -9 8 17 36 33 36 8 0 14 -4 14 -10z m-14910 -10 c0 -5
-5 -10 -11 -10 -5 0 -7 5 -4 10 3 6 8 10 11 10 2 0 4 -4 4 -10z m-1450 -25
c-7 -8 -17 -12 -22 -9 -5 3 -1 12 9 19 22 17 30 11 13 -10z m12615 -15 c-3 -5
-11 -10 -16 -10 -6 0 -7 5 -4 10 3 6 11 10 16 10 6 0 7 -4 4 -10z m-2285 -30
c0 -5 -5 -10 -11 -10 -5 0 -7 5 -4 10 3 6 8 10 11 10 2 0 4 -4 4 -10z m800
-40 c0 -5 -5 -10 -11 -10 -5 0 -7 5 -4 10 3 6 8 10 11 10 2 0 4 -4 4 -10z
m-1196 -25 c-4 -8 -12 -15 -20 -15 -17 0 -18 17 -1 23 22 9 27 7 21 -8z m2853
-12 c-8 -9 -21 -13 -27 -11 -9 3 -8 9 4 21 10 9 22 14 28 11 6 -4 4 -12 -5
-21z m-11957 -3 c0 -5 -5 -10 -11 -10 -5 0 -7 5 -4 10 3 6 8 10 11 10 2 0 4
-4 4 -10z m545 -20 c-3 -5 -11 -10 -16 -10 -6 0 -7 5 -4 10 3 6 11 10 16 10 6
0 7 -4 4 -10z m15020 0 c-3 -5 -11 -10 -16 -10 -6 0 -7 5 -4 10 3 6 11 10 16
10 6 0 7 -4 4 -10z m-6615 -15 c-7 -8 -17 -15 -22 -15 -6 0 -5 7 2 15 7 8 17
15 22 15 6 0 5 -7 -2 -15z m-8825 -5 c-3 -5 -11 -10 -16 -10 -6 0 -7 5 -4 10
3 6 11 10 16 10 6 0 7 -4 4 -10z m-235 -29 c0 -13 -28 -33 -41 -29 -8 3 -6 9
5 21 19 18 36 22 36 8z m11310 -13 c0 -14 -61 -60 -69 -53 -6 6 49 65 61 65 4
0 8 -6 8 -12z m790 -2 c0 -2 -8 -10 -17 -17 -16 -13 -17 -12 -4 4 13 16 21 21
21 13z m-9238 -78 c-6 -6 -15 -8 -19 -4 -4 4 -1 11 7 16 8 5 17 7 19 4 3 -2
-1 -10 -7 -16z m3848 -22 c0 -2 -7 -7 -16 -10 -8 -3 -12 -2 -9 4 6 10 25 14
25 6z m4835 -25 c-3 -6 -11 -11 -17 -11 -6 0 -6 6 2 15 14 17 26 13 15 -4z
m2680 -2 c-4 -5 -13 -9 -22 -9 -13 0 -13 3 -3 15 13 15 35 11 25 -6z m-8910
-19 c-20 -22 -31 -20 -22 5 4 8 14 15 23 15 16 0 16 -2 -1 -20z m7235 11 c0
-12 -20 -25 -27 -18 -7 7 6 27 18 27 5 0 9 -4 9 -9z m2958 -13 c-3 -7 -13 -15
-24 -17 -16 -3 -17 -1 -5 13 16 19 34 21 29 4z m-4368 -7 c0 -12 -20 -25 -27
-18 -7 7 6 27 18 27 5 0 9 -4 9 -9z m-6140 -20 c0 -5 -7 -12 -16 -15 -24 -9
-28 -7 -14 9 14 17 30 20 30 6z m898 -3 c-3 -7 -13 -15 -24 -17 -16 -3 -17 -1
-5 13 16 19 34 21 29 4z m-6193 -8 c-3 -5 -13 -10 -21 -10 -8 0 -12 5 -9 10 3
6 13 10 21 10 8 0 12 -4 9 -10z m11465 -29 c0 -13 -29 -35 -37 -28 -7 8 15 37
28 37 5 0 9 -4 9 -9z m-3210 -25 c0 -3 -4 -8 -10 -11 -5 -3 -10 -1 -10 4 0 6
5 11 10 11 6 0 10 -2 10 -4z m3140 -31 c-7 -8 -17 -12 -23 -8 -6 4 -3 11 8 19
23 17 32 10 15 -11z m-405 5 c-3 -5 -11 -10 -16 -10 -6 0 -7 5 -4 10 3 6 11
10 16 10 6 0 7 -4 4 -10z m-3821 -21 c-12 -13 -20 -16 -22 -9 -3 7 2 16 9 21
25 16 32 9 13 -12z m848 -1 c-7 -7 -12 -8 -12 -2 0 14 12 26 19 19 2 -3 -1
-11 -7 -17z m4748 -42 c0 -3 -4 -8 -10 -11 -5 -3 -10 -1 -10 4 0 6 5 11 10 11
6 0 10 -2 10 -4z m1670 0 c0 -2 -7 -7 -16 -10 -8 -3 -12 -2 -9 4 6 10 25 14
25 6z m-10040 -31 c0 -16 -27 -32 -37 -21 -7 7 16 36 28 36 5 0 9 -7 9 -15z
m8807 -12 c-9 -9 -19 -14 -23 -11 -10 10 6 28 24 28 15 0 15 -1 -1 -17z
m-12092 -23 c-3 -5 -11 -10 -16 -10 -6 0 -7 5 -4 10 3 6 11 10 16 10 6 0 7 -4
4 -10z m11943 -2 c-3 -7 -13 -15 -24 -17 -16 -3 -17 -1 -5 13 16 19 34 21 29
4z m232 -38 c0 -5 -7 -10 -16 -10 -8 0 -12 5 -9 10 3 6 10 10 16 10 5 0 9 -4
9 -10z m-14853 -27 c-9 -9 -20 -13 -24 -9 -4 4 1 14 11 22 25 18 35 8 13 -13z
m618 7 c-3 -5 -11 -10 -16 -10 -6 0 -7 5 -4 10 3 6 11 10 16 10 6 0 7 -4 4
-10z m8985 1 c0 -5 -7 -14 -15 -21 -16 -14 -18 -10 -9 14 6 17 24 22 24 7z
m5675 -21 c-3 -5 -10 -10 -16 -10 -5 0 -9 5 -9 10 0 6 7 10 16 10 8 0 12 -4 9
-10z m-705 -20 c-20 -13 -33 -13 -25 0 3 6 14 10 23 10 15 0 15 -2 2 -10z m90
1 c0 -5 -7 -11 -15 -15 -15 -5 -20 5 -8 17 9 10 23 9 23 -2z m-12935 -41 c-20
-22 -31 -20 -22 5 4 8 14 15 23 15 16 0 16 -2 -1 -20z m8515 6 c0 -3 -4 -8
-10 -11 -5 -3 -10 -1 -10 4 0 6 5 11 10 11 6 0 10 -2 10 -4z m2225 -16 c-3 -5
-11 -10 -16 -10 -6 0 -7 5 -4 10 3 6 11 10 16 10 6 0 7 -4 4 -10z m-13145 -4
c0 -2 -7 -7 -16 -10 -8 -3 -12 -2 -9 4 6 10 25 14 25 6z m6200 -51 c-7 -9 -15
-13 -17 -11 -7 7 7 26 19 26 6 0 6 -6 -2 -15z m450 -14 c0 -12 -20 -25 -27
-18 -7 7 6 27 18 27 5 0 9 -4 9 -9z m7360 -5 c0 -3 -4 -8 -10 -11 -5 -3 -10
-1 -10 4 0 6 5 11 10 11 6 0 10 -2 10 -4z m1140 -36 c0 -5 -9 -14 -20 -20 -22
-12 -27 -1 -8 18 14 14 28 16 28 2z m-10428 -32 c-7 -7 -12 -8 -12 -2 0 14 12
26 19 19 2 -3 -1 -11 -7 -17z m5610 -10 c-7 -7 -12 -8 -12 -2 0 14 12 26 19
19 2 -3 -1 -11 -7 -17z m4213 3 c-3 -6 -11 -11 -17 -11 -6 0 -6 6 2 15 14 17
26 13 15 -4z m2000 -1 c-3 -5 -11 -10 -16 -10 -6 0 -7 5 -4 10 3 6 11 10 16
10 6 0 7 -4 4 -10z m-4070 -10 c-3 -5 -11 -10 -16 -10 -6 0 -7 5 -4 10 3 6 11
10 16 10 6 0 7 -4 4 -10z m-11566 -21 c-22 -14 -33 -10 -19 6 7 8 17 12 22 9
6 -4 5 -10 -3 -15z m15541 -28 c0 -12 -20 -25 -27 -18 -7 7 6 27 18 27 5 0 9
-4 9 -9z m-620 -10 c0 -12 -20 -25 -27 -18 -7 7 6 27 18 27 5 0 9 -4 9 -9z
m-9586 -53 c14 -19 16 -64 16 -290 0 -255 -1 -269 -20 -288 -19 -19 -33 -20
-291 -20 -167 0 -278 4 -290 10 -18 10 -19 24 -19 298 0 211 3 291 12 300 9 9
88 12 294 12 281 0 283 0 298 -22z m3401 12 c-3 -5 -11 -10 -16 -10 -6 0 -7 5
-4 10 3 6 11 10 16 10 6 0 7 -4 4 -10z m7530 -10 c-3 -5 -13 -10 -21 -10 -8 0
-12 5 -9 10 3 6 13 10 21 10 8 0 12 -4 9 -10z m-12978 -27 c-9 -9 -19 -14 -23
-11 -10 10 6 28 24 28 15 0 15 -1 -1 -17z m11713 -3 c0 -5 -9 -14 -20 -20 -16
-8 -20 -8 -20 4 0 13 13 23 33 25 4 1 7 -3 7 -9z m160 -20 c0 -12 -40 -33 -48
-25 -4 4 2 13 12 21 23 16 36 18 36 4z m-7678 -22 c-6 -6 -15 -8 -19 -4 -4 4
-1 11 7 16 19 12 27 3 12 -12z m8798 -8 c0 -5 -5 -10 -11 -10 -5 0 -7 5 -4 10
3 6 8 10 11 10 2 0 4 -4 4 -10z m-5331 -41 c-19 -12 -24 -2 -8 17 9 11 14 13
17 4 3 -7 -2 -16 -9 -21z m-4689 -164 c0 -168 -1 -175 -20 -175 -19 0 -20 7
-20 175 0 168 1 175 20 175 19 0 20 -7 20 -175z m1740 105 l0 -70 33 20 c38
24 66 25 112 6 42 -18 65 -61 65 -122 0 -39 -5 -51 -34 -80 -29 -29 -41 -34
-79 -34 -30 0 -53 7 -71 21 l-26 20 0 -20 c0 -14 -6 -21 -20 -21 -19 0 -20 7
-20 175 0 168 1 175 20 175 18 0 20 -7 20 -70z m1410 -105 c0 -168 -1 -175
-20 -175 -14 0 -20 7 -20 21 l0 20 -26 -20 c-33 -26 -95 -28 -135 -4 -36 21
-63 85 -54 130 17 93 127 134 193 73 l22 -21 0 76 c0 68 2 75 20 75 19 0 20
-7 20 -175z m-3373 135 c45 -27 66 -73 67 -145 1 -106 -47 -165 -134 -165 -86
0 -134 59 -134 165 0 72 17 111 63 142 42 28 95 30 138 3z m3691 0 c42 -26 62
-74 62 -150 0 -103 -46 -160 -129 -160 -64 0 -104 27 -126 84 -21 55 -16 139
11 185 35 59 121 78 182 41z m3829 -17 c-9 -9 -20 -13 -24 -9 -4 4 1 14 11 22
25 18 35 8 13 -13z m-597 7 c0 -5 -5 -10 -11 -10 -5 0 -7 5 -4 10 3 6 8 10 11
10 2 0 4 -4 4 -10z m3680 -10 c0 -11 -39 -34 -46 -27 -6 6 25 37 37 37 5 0 9
-4 9 -10z m-2942 -12 c-3 -7 -13 -15 -24 -17 -16 -3 -17 -1 -5 13 16 19 34 21
29 4z m-5348 -2 c0 -3 -4 -8 -10 -11 -5 -3 -10 -1 -10 4 0 6 5 11 10 11 6 0
10 -2 10 -4z m-1807 -37 c37 -17 47 -50 47 -149 0 -83 -1 -90 -20 -90 -11 0
-20 7 -20 16 0 14 -2 14 -22 0 -33 -23 -99 -21 -127 5 -17 16 -21 30 -19 57 4
44 28 59 111 67 60 7 71 20 41 49 -18 18 -76 21 -106 5 -16 -8 -22 -8 -29 2
-6 10 1 19 24 31 37 20 86 23 120 7z m198 -16 c6 -149 7 -157 25 -170 31 -22
80 -16 103 13 17 22 21 41 21 105 0 72 2 79 20 79 19 0 20 -7 20 -125 0 -118
-1 -125 -20 -125 -14 0 -20 7 -20 21 l0 20 -26 -20 c-32 -25 -90 -28 -121 -6
-12 9 -27 32 -33 53 -11 41 -14 165 -3 175 15 16 33 5 34 -20z m360 0 c0 -16
3 -22 6 -15 5 13 55 42 73 42 23 0 7 -36 -23 -50 -43 -20 -57 -52 -57 -132 0
-61 -2 -68 -20 -68 -19 0 -20 7 -20 125 0 118 1 125 20 125 15 0 20 -7 21 -27z
m327 16 c36 -12 58 -42 67 -93 l7 -36 -101 0 c-105 0 -116 -5 -88 -41 30 -39
75 -48 121 -24 28 15 46 13 46 -5 0 -16 -57 -40 -95 -40 -107 0 -166 120 -98
200 40 49 81 60 141 39z m212 -16 c0 -16 4 -23 8 -17 35 50 110 58 153 15 28
-28 29 -33 29 -125 0 -89 -1 -96 -20 -96 -18 0 -20 7 -20 85 0 72 -3 88 -20
105 -23 23 -48 25 -84 9 -32 -15 -46 -56 -46 -135 0 -57 -2 -64 -20 -64 -19 0
-20 7 -20 125 0 118 1 125 20 125 15 0 20 -7 20 -27z m856 -4 c20 -19 44 -73
44 -101 0 -5 -45 -8 -100 -8 -108 0 -122 -8 -80 -50 29 -29 67 -35 107 -16 32
15 53 14 53 -2 0 -18 -62 -42 -105 -42 -40 0 -52 5 -81 34 -29 29 -34 41 -34
80 0 60 23 104 63 122 42 19 103 11 133 -17z m293 16 c38 -19 41 -30 41 -141
0 -87 -1 -94 -20 -94 -11 0 -20 7 -20 16 0 14 -2 14 -22 0 -54 -38 -148 -4
-148 53 0 15 6 35 13 45 14 18 72 35 125 36 25 0 32 4 32 19 0 30 -25 43 -72
39 -24 -3 -51 -8 -60 -12 -13 -6 -18 -4 -18 8 0 20 52 45 93 46 15 0 41 -7 56
-15z m211 -6 l0 -20 26 20 c34 27 64 27 64 1 0 -13 -7 -20 -20 -20 -12 0 -32
-11 -45 -25 -22 -22 -25 -32 -25 -105 0 -73 -2 -80 -20 -80 -19 0 -20 7 -20
125 0 118 1 125 20 125 14 0 20 -7 20 -21z m6247 -16 c-9 -9 -19 -14 -23 -11
-10 10 6 28 24 28 15 0 15 -1 -1 -17z m-1557 -93 c0 -9 -32 -30 -46 -30 -4 0
1 9 11 20 19 21 35 26 35 10z m659 -76 c-6 -8 -18 -14 -27 -14 -13 0 -12 3 3
20 20 22 43 17 24 -6z m2188 -9 c-7 -16 -37 -21 -37 -5 0 10 32 31 39 25 2 -2
1 -11 -2 -20z m-11865 -67 c-7 -7 -12 -8 -12 -2 0 14 12 26 19 19 2 -3 -1 -11
-7 -17z m11826 10 c-3 -7 -19 -18 -37 -25 l-32 -13 17 25 c16 25 59 36 52 13z
m-4771 -35 c-9 -9 -19 -14 -23 -11 -10 10 6 28 24 28 15 0 15 -1 -1 -17z
m-1592 -74 c-4 -5 -13 -9 -22 -9 -13 0 -13 3 -3 15 13 15 35 11 25 -6z m5715
-38 c0 -11 -31 -24 -39 -16 -3 3 1 10 9 15 19 12 30 12 30 1z m-4015 -90 c-3
-6 -14 -11 -23 -11 -15 1 -15 2 2 15 21 16 32 13 21 -4z m6581 -56 c-27 -21
-53 -20 -36 0 7 8 22 15 34 15 21 -1 21 -1 2 -15z m-13139 -147 c66 -44 73
-70 73 -276 0 -187 -5 -220 -43 -260 -44 -48 -74 -56 -220 -60 -232 -7 -290
10 -334 98 -21 40 -23 58 -23 205 0 175 8 219 46 265 42 49 95 60 290 57 166
-2 172 -3 211 -29z m1621 -316 c2 -167 2 -172 -18 -172 -19 0 -20 6 -20 176 0
162 1 175 18 172 15 -3 17 -21 20 -176z m172 3 c0 -168 -1 -175 -20 -175 -19
0 -20 7 -20 168 0 93 3 172 7 175 3 4 12 7 20 7 10 0 13 -36 13 -175z m1350
103 c0 -69 1 -71 19 -54 24 22 79 30 114 17 40 -15 57 -64 57 -161 0 -72 -2
-80 -19 -80 -17 0 -19 9 -22 84 -3 65 -8 89 -23 105 -26 29 -71 27 -101 -4
-22 -22 -25 -32 -25 -105 0 -73 -2 -80 -20 -80 -19 0 -20 7 -20 175 0 168 1
175 20 175 18 0 20 -7 20 -72z m675 30 c4 -34 2 -219 -4 -295 -1 -7 -10 -13
-21 -13 -19 0 -20 7 -20 168 0 93 3 172 7 175 17 18 32 4 38 -35z m4575 12 c0
-5 -5 -10 -11 -10 -5 0 -7 5 -4 10 3 6 8 10 11 10 2 0 4 -4 4 -10z m-6992 -81
c36 -12 58 -42 67 -93 l7 -36 -101 0 c-55 0 -101 -4 -101 -9 0 -23 15 -43 41
-56 35 -19 57 -19 93 0 28 15 46 13 46 -5 0 -16 -57 -40 -95 -40 -80 0 -131
57 -122 137 9 86 82 131 165 102z m709 -22 c15 -14 27 -40 30 -65 l6 -41 -101
-3 -101 -3 12 -25 c7 -14 26 -31 42 -39 26 -12 35 -12 72 1 27 10 46 12 49 6
12 -19 -26 -41 -78 -46 -47 -4 -58 -1 -85 22 -76 64 -61 178 27 215 39 16 100
6 127 -22z m183 11 c0 -19 1 -20 18 -6 9 9 27 19 40 22 18 6 22 3 22 -13 0
-12 -6 -21 -15 -21 -9 0 -27 -11 -40 -25 -22 -22 -25 -32 -25 -105 0 -73 -2
-80 -20 -80 -19 0 -20 7 -20 125 0 118 1 125 20 125 14 0 20 -7 20 -22z m347
-13 c20 -23 23 -37 23 -121 0 -87 -1 -94 -20 -94 -11 0 -20 7 -20 16 0 14 -2
14 -22 0 -12 -9 -40 -16 -61 -16 -71 0 -113 75 -66 119 22 21 97 36 129 26 16
-5 20 -2 20 18 0 14 -7 30 -15 37 -18 15 -76 16 -103 1 -27 -15 -32 -14 -32 4
0 23 59 46 105 41 27 -3 47 -13 62 -31z m303 22 c30 -15 43 -55 14 -42 -11 5
-38 10 -61 13 -35 3 -46 0 -67 -22 -37 -36 -35 -88 3 -127 33 -32 62 -36 105
-14 28 15 46 13 46 -5 0 -16 -57 -40 -95 -40 -66 0 -125 56 -125 119 0 92 101
158 180 118z m686 -18 c20 -19 44 -73 44 -101 0 -5 -45 -8 -100 -8 -108 0
-122 -8 -80 -50 29 -29 67 -35 107 -16 54 26 75 3 24 -27 -55 -32 -140 -15
-175 35 -20 28 -21 100 -2 137 32 61 132 77 182 30z m-2463 -304 c2 -11 -226
-20 -251 -10 -7 2 -10 10 -7 15 9 14 254 9 258 -5z m3005 3 c-4 -10 -39 -13
-133 -13 -94 0 -129 3 -132 13 -4 9 27 12 132 12 105 0 136 -3 133 -12z"/>
<path d="M9384 9136 c-65 -29 -106 -117 -86 -185 25 -81 81 -121 170 -121 54
0 100 25 136 73 16 21 21 43 21 87 0 66 -18 99 -75 138 -38 26 -116 30 -166 8z"/>
<path d="M12321 9045 c-22 -53 -41 -101 -41 -106 0 -5 38 -9 85 -9 47 0 85 4
85 10 0 8 -78 191 -85 198 -1 1 -21 -41 -44 -93z m49 -49 c0 -3 -4 -8 -10 -11
-5 -3 -10 -1 -10 4 0 6 5 11 10 11 6 0 10 -2 10 -4z"/>
<path d="M8350 7095 c0 -9 -136 -759 -170 -935 -11 -58 -20 -108 -20 -112 0
-5 88 -8 195 -8 156 0 195 3 195 13 0 8 -29 169 -64 358 -36 189 -67 358 -70
374 -47 250 -58 311 -62 314 -2 2 -4 0 -4 -4z m57 -922 c-9 -9 -19 -14 -23
-11 -10 10 6 28 24 28 15 0 15 -1 -1 -17z"/>
<path d="M11780 6945 l0 -395 55 0 c40 0 57 4 61 15 4 8 11 15 16 15 6 0 7 -7
4 -16 -5 -13 2 -15 52 -9 182 22 253 65 309 190 15 33 18 68 18 210 0 156 -2
174 -23 220 -58 126 -146 165 -372 165 l-120 0 0 -395z m120 265 c0 -5 -5 -10
-11 -10 -5 0 -7 5 -4 10 3 6 8 10 11 10 2 0 4 -4 4 -10z m75 -100 c-3 -5 -11
-10 -16 -10 -6 0 -7 5 -4 10 3 6 11 10 16 10 6 0 7 -4 4 -10z m-85 -145 c-7
-9 -15 -13 -18 -10 -3 2 1 11 8 20 7 9 15 13 18 10 3 -2 -1 -11 -8 -20z m235
-244 c-3 -6 -11 -11 -17 -11 -6 0 -6 6 2 15 14 17 26 13 15 -4z"/>
<path d="M11815 3925 c-53 -53 -15 -149 58 -149 52 0 87 35 87 86 0 79 -90
119 -145 63z"/>
<path d="M13013 3930 c-29 -26 -38 -73 -21 -107 35 -73 146 -62 163 16 7 32
-9 79 -33 97 -26 20 -85 17 -109 -6z"/>
<path d="M9703 4015 c-46 -32 -49 -174 -4 -218 30 -30 93 -29 123 1 20 20 23
33 23 108 0 78 -2 87 -24 105 -28 23 -88 25 -118 4z"/>
<path d="M13381 4004 c-46 -58 -35 -176 21 -217 38 -28 92 -17 118 26 37 60
21 193 -25 211 -9 3 -34 6 -55 6 -29 0 -43 -6 -59 -26z"/>
<path d="M10217 3843 c-15 -14 -6 -53 14 -63 40 -22 109 14 109 57 0 14 -110
19 -123 6z"/>
<path d="M11112 3927 c-38 -40 -29 -47 58 -47 64 0 80 3 80 15 0 52 -98 75
-138 32z"/>
<path d="M12150 3928 c-37 -40 -27 -48 60 -48 44 0 80 4 80 9 0 4 -9 20 -21
35 -27 34 -88 37 -119 4z"/>
<path d="M12463 3843 c-7 -2 -13 -15 -13 -28 0 -26 25 -45 58 -45 27 0 72 38
72 61 0 16 -7 19 -52 18 -29 0 -59 -3 -65 -6z"/>
<path d="M8641 3237 c-13 -6 -34 -25 -45 -40 -19 -26 -21 -41 -21 -202 0 -161
2 -176 21 -202 36 -48 56 -53 237 -53 253 0 257 4 257 255 0 251 -4 255 -257
255 -113 0 -176 -4 -192 -13z m389 -58 c9 -15 8 -24 -1 -35 -28 -33 -80 -3
-59 35 6 12 19 21 30 21 11 0 24 -9 30 -21z m-135 -38 c51 -23 74 -49 89 -102
46 -155 -141 -271 -259 -161 -32 29 -55 80 -55 119 0 42 36 106 72 128 61 37
99 41 153 16z"/>
<path d="M8785 3089 c-34 -20 -55 -52 -55 -87 0 -98 100 -147 172 -83 28 25
33 36 33 75 0 36 -6 51 -26 72 -30 29 -93 41 -124 23z"/>
<path d="M10400 3003 c-23 -9 -60 -45 -60 -60 0 -10 20 -13 80 -13 64 0 80 3
80 15 0 16 -35 55 -49 55 -5 0 -15 2 -23 4 -7 3 -20 2 -28 -1z"/>
<path d="M11043 2985 c-11 -8 -23 -24 -26 -35 -5 -19 -1 -20 79 -20 75 0 83 2
77 18 -18 51 -83 70 -130 37z"/>
<path d="M11567 2893 c-4 -3 -7 -17 -7 -29 0 -25 26 -44 58 -44 27 0 72 38 72
61 0 17 -7 19 -58 19 -32 0 -62 -3 -65 -7z"/>
<path d="M12560 2980 c-40 -40 -27 -50 60 -50 44 0 80 4 80 9 0 4 -9 20 -21
35 -26 33 -88 37 -119 6z"/>
</g>
</svg>
